<?xml version="1.0" encoding="UTF-8" standalone="no"?>
<!-- Created with Inkscape (http://www.inkscape.org/) -->

<svg
   version="1.1"
   id="svg1"
   width="1280"
   height="720"
   viewBox="0 0 1280 720"
   xmlns="http://www.w3.org/2000/svg"
   xmlns:svg="http://www.w3.org/2000/svg">
  <defs
     id="defs1" />
  <g
     id="g1"
     transform="translate(-4.53408)">
    <g
       id="g2"
       transform="translate(4.5340801)">
      <path
         style="fill:#f7a418"
         d="m 139,568.68987 c -6.06731,-1.4275 -8.98076,-2.44079 -14.66667,-5.10103 l -4,-1.87146 7.33334,-0.45381 c 4.03333,-0.2496 8.64044,-0.93404 10.23803,-1.52097 4.02896,-1.48019 9.06927,-5.3272 12.24736,-9.34778 3.52853,-4.46393 10.31609,-18.5716 14.14259,-29.39482 7.60446,-21.50913 9.19243,-24.56534 16.66167,-32.06705 4.26574,-4.28427 6.2037,-5.71503 9.37701,-6.92282 3.90539,-1.48643 9.75026,-2.14612 10.69143,-1.20671 0.25903,0.25855 -0.48139,1.42244 -1.64537,2.58642 -2.84147,2.84147 -6.04898,9.39278 -8.94832,18.27683 -2.35306,7.21019 -5.86006,22.11927 -6.74313,28.66666 -0.9317,6.908 -3.18512,14.21885 -6.39147,20.73609 -3.90722,7.94184 -9.4242,13.81675 -15.7596,16.78204 -5.09652,2.38543 -14.47812,2.73444 -22.53687,0.83841 z m -34.76808,-24.2692 c -11.35534,-2.86639 -20.878167,-11.94913 -30.645449,-29.22922 -1.257922,-2.22549 -2.169643,-4.16383 -2.026047,-4.30743 0.143596,-0.1436 1.576244,0.8447 3.183663,2.19622 1.607419,1.35151 4.57258,3.23635 6.589246,4.18853 C 84.694627,518.85582 85.721791,519 93.666667,519 h 8.666663 L 108,516.22373 c 7.45009,-3.65003 14.11799,-8.06025 22.58455,-14.93765 11.78098,-9.56971 16.86082,-13.15175 23.08212,-16.27633 C 159.83396,481.91229 165.97829,480 169.76333,480 c 2.54183,0 5.57,1.04375 5.57,1.91986 0,0.34074 -1.5887,1.51614 -3.53045,2.61199 -4.92362,2.77872 -12.15146,10.72271 -21.09083,23.18053 -4.1917,5.84152 -9.27278,12.72095 -11.29127,15.28762 -5.61133,7.13521 -17.33826,18.52473 -20.75411,20.15695 -3.85135,1.84032 -10.01339,2.37979 -14.43475,1.26372 z M 362,540 c 0,-0.36667 0.54127,-0.66667 1.20281,-0.66667 1.73832,0 6.84029,-3.4013 9.08192,-6.05459 6.20999,-7.3504 6.69486,-17.93682 1.0121,-22.09767 -3.68446,-2.69772 -7.4828,1.30141 -5.99133,6.30805 0.88305,2.96428 2.72986,4.12112 5.78706,3.625 2.00244,-0.32495 2.17412,-0.23526 1.60071,0.83618 -1.80542,3.37346 -8.13924,3.35955 -10.98642,-0.0241 -2.82771,-3.36055 -1.94912,-7.15265 2.57817,-11.12767 4.33528,-3.80642 9.14512,-3.47548 12.98081,0.89313 5.13624,5.84985 3.86108,14.16603 -3.37603,22.01736 C 371.8838,538.055 362,542.53159 362,540 Z m 50.16667,-0.147 c -1.72934,-0.83402 -1.92297,-2.00538 -0.5235,-3.16683 0.78411,-0.65076 1.36261,-0.53549 2.93625,0.58504 2.60736,1.8566 4.88497,1.76007 7.34676,-0.3114 2.62049,-2.20499 3.18448,-5.15652 1.69611,-8.87631 -1.30805,-3.26915 -3.19324,-4.30467 -6.24392,-3.42975 -2.92234,0.83812 -2.71133,-0.79988 0.34649,-2.68971 5.00818,-3.09523 6.35094,-6.5549 3.60847,-9.29737 -2.04277,-2.04277 -5.09358,-1.73099 -7.4188,0.75816 -2.21981,2.37632 -3.37127,2.03361 -1.89677,-0.56452 1.7714,-3.12131 4.38657,-4.52698 8.42218,-4.52698 3.20061,0 3.88339,0.24168 5.28445,1.87051 2.42876,2.82361 2.12967,5.4323 -0.97929,8.54126 -1.98419,1.98419 -2.3073,2.58823 -1.38449,2.58823 1.70245,0 4.9782,2.93233 5.98143,5.35436 1.00691,2.4309 0.1596,6.07101 -2.07419,8.91081 -3.15392,4.00956 -11.01619,6.22462 -15.10118,4.2545 z M 316.5,539.27993 c -1.84259,-1.07321 -1.52916,-4.47668 0.49729,-5.4 1.37489,-0.62644 1.89606,-0.5481 3,0.45095 1.66277,1.50479 1.70435,3.12915 0.11688,4.56579 -1.39975,1.26677 -1.98985,1.32934 -3.61417,0.38326 z m -62.91494,-0.58404 c -0.16742,-0.16726 0.68246,-0.77008 1.88861,-1.3396 l 2.193,-1.03548 V 523 509.67919 l -2.33334,-1.14091 c -2.77483,-1.35678 -3.29118,-1.28592 9.79213,-1.34384 11.50383,-0.0509 11.38184,-0.0966 11.49435,4.30556 0.0611,2.39211 -0.63896,2.28267 -2.2966,-0.35901 -1.22907,-1.9587 -1.67375,-2.15816 -5.22291,-2.3426 -5.36865,-0.27901 -5.76697,0.20102 -5.76697,6.94991 v 5.58503 h 3.47496 c 2.98252,0 3.68767,-0.2598 4.97603,-1.83333 l 1.50106,-1.83333 0.024,4.83333 c 0.0132,2.65833 -0.20103,4.83144 -0.47603,4.82912 -0.275,-0.002 -1.02058,-0.91894 -1.65685,-2.03693 -1.06903,-1.8784 -1.398,-2.01726 -4.33333,-1.82912 l -3.17648,0.2036 -0.19157,5.76081 c -0.24809,7.46086 0.36361,8.22648 6.15345,7.70176 3.66266,-0.33193 4.23586,-0.60144 6.16485,-2.89865 1.1697,-1.39298 2.31441,-2.345 2.54381,-2.1156 0.58803,0.58803 -0.88227,5.73116 -1.80067,6.29877 -0.82879,0.51222 -22.45509,0.77806 -22.95148,0.28213 z m 29.31106,-0.0268 c -1.6176,-0.65246 -2.77011,-4.39513 -1.68696,-5.47828 0.45872,-0.45872 1.02071,-0.0134 1.74101,1.37946 1.85814,3.59325 5.00797,4.46414 6.71625,1.85697 1.41965,-2.16665 0.77935,-3.33507 -3.31806,-6.05477 C 282.51539,527.82831 282,527.03278 282,523.66053 c 0,-3.10652 2.50008,-4.99722 6.58991,-4.98365 3.67043,0.0122 4.39858,0.41926 4.97656,2.78226 0.62699,2.56343 -0.44278,2.81987 -2.14708,0.51468 -1.53223,-2.07245 -3.86861,-2.59127 -5.28606,-1.17382 -1.53649,1.53649 -0.80963,3.22083 2.32187,5.38041 1.71703,1.18411 3.66703,2.67792 4.33333,3.31959 1.20728,1.16263 1.6178,4.66541 0.79735,6.80347 -0.95859,2.49803 -7.03028,3.8417 -10.68976,2.36565 z m 19.09603,-0.54003 c -1.5667,-1.26734 -1.67126,-1.77092 -1.88285,-9.0688 -0.20888,-7.20422 -0.31412,-7.72696 -1.55556,-7.72696 -0.73233,0 -1.23152,-0.2667 -1.1093,-0.59268 0.30703,-0.81885 5.8858,-5.40732 6.57435,-5.40732 0.30762,0 0.65424,0.825 0.77026,1.83334 0.19675,1.70995 0.44649,1.84689 3.71095,2.03484 2.45389,0.14127 3.5,0.47956 3.5,1.13182 0,0.65226 -1.04611,0.99055 -3.5,1.13183 l -3.5,0.20151 -0.19165,6.16382 c -0.25175,8.0971 0.28603,9.14154 4.41558,8.57552 l 3.08987,-0.42351 -1.41556,1.41556 c -2.07428,2.07428 -6.76913,2.45964 -8.90609,0.73103 z m 37.61125,0.0376 c 0.27076,-0.275 1.44576,-0.82647 2.61111,-1.22548 l 2.11882,-0.72548 0.18282,-11.11479 c 0.20236,-12.30276 0.55276,-11.22996 -4.16413,-12.74921 -1.09932,-0.35408 -1.15392,-0.52509 -0.33334,-1.04403 0.53973,-0.34133 1.59289,-0.62519 2.34036,-0.6308 0.74747,-0.006 2.5359,-0.61021 3.97429,-1.34355 C 347.77172,508.6 349.18516,508 349.47429,508 349.76343,508 350,514.30743 350,522.0165 v 14.0165 l 1.83333,0.66071 c 4.76195,1.71615 4.40569,1.88321 -4.11111,1.92784 -4.73611,0.0248 -8.38958,-0.17988 -8.11882,-0.45488 z m 48.67672,-0.0806 c 0.19734,-0.31931 1.26999,-0.7628 2.38367,-0.98554 C 393.5232,536.52869 394,534.69784 394,524.28993 c 0,-8.06771 -0.13233,-9.08892 -1.33333,-10.28993 -0.73334,-0.73333 -1.95834,-1.33333 -2.72223,-1.33333 -2.26899,0 -1.06792,-1.58133 1.62623,-2.14109 1.35996,-0.28256 3.34801,-0.96641 4.41789,-1.51966 C 397.05843,508.45266 398.0926,508 398.2867,508 c 0.1941,0 0.434,6.225 0.53311,13.83333 L 399,535.66667 l 3,1.47252 3,1.47252 -8.53934,0.0275 c -4.69664,0.0151 -8.37789,-0.23377 -8.18054,-0.55308 z M 77.460453,495.98673 C 66.375178,490.37238 57.09387,476.8706 54.306949,462.30467 c -1.912301,-9.9947 -2.04879,-27.638 -0.213807,-27.638 0.355327,0 2.716215,1.78173 5.246418,3.95941 11.397736,9.80973 27.866425,18.64188 46.75663,25.07556 16.63542,5.66574 37.55892,5.8719 57.17529,0.56334 24.58428,-6.65297 50.87346,-24.06834 66.16495,-43.83123 10.96903,-14.17652 23.06507,-37.13984 30.78024,-58.43375 10.23436,-28.24686 19.49602,-46.59641 27.42715,-54.33967 4.36885,-4.26536 8.01717,-6.42848 14.76275,-8.75294 4.73919,-1.63308 6.18437,-1.81341 14.59343,-1.821 8.06112,-0.007 10.23795,0.23616 15.96988,1.78592 5.88415,1.59093 7.82617,1.79436 17.1295,1.79436 10.08725,0 10.56418,0.0613 12.33567,1.58505 l 1.84274,1.58505 -3.6389,1.84233 c -11.68936,5.91819 -29.56008,21.01268 -38.34893,32.39141 -8.42404,10.90642 -19.12352,32.16809 -24.28722,48.26282 -8.03782,25.05304 -16.68977,42.44679 -27.65164,55.59036 -7.18169,8.61105 -14.06532,14.0411 -25.68443,20.26081 -12.88226,6.89587 -28.93773,9.68499 -62.33334,10.82844 -14.01985,0.48003 -20.41088,1.41397 -31.48185,4.60053 -10.33771,2.97551 -18.75533,6.12104 -30.85148,11.5287 -16.38693,7.3259 -19.6652,8.28211 -29.666667,8.65326 l -8.666666,0.32162 z M 350,457.59329 c -9.82053,-1.20621 -15.20161,-3.18565 -28.18066,-10.36627 -11.4824,-6.35261 -18.74167,-8.67671 -27.48601,-8.79983 -3.66666,-0.0516 -8.16666,0.13803 -10,0.42145 l -3.33333,0.5153 3.33333,-3.12185 c 8.21974,-7.69824 19.70237,-14.72224 29.33334,-17.94339 5.0381,-1.68503 5.84999,-1.76529 14.66666,-1.45003 8.26132,0.29541 10.44364,0.64216 19,3.01885 14.25219,3.9588 16.84352,4.39484 26,4.37492 14.35093,-0.0312 20.39289,-1.7842 40.24621,-11.6768 17.25356,-8.59718 23.13601,-12.19832 33.20576,-20.32809 2.94408,-2.37688 5.49687,-4.17761 5.67286,-4.00161 0.65355,0.65355 -11.4637,18.14736 -17.84456,25.7624 -13.9291,16.62327 -30.04806,28.93964 -48.38382,36.9697 -10.89804,4.77275 -17.26874,6.39345 -26.22978,6.67282 -4.21667,0.13147 -8.71667,0.11006 -10,-0.0476 z M 211.70969,420.25561 c -4.27172,-5.11035 -6.48037,-5.73393 -22.37636,-6.31763 -8.08237,-0.29678 -15.16489,-0.89344 -17.33333,-1.46022 -8.53001,-2.22957 -18.38641,-6.857 -24.5838,-11.54172 -5.3793,-4.06631 -15.38676,-14.37113 -19.99871,-20.59293 -6.09316,-8.22006 -14.75082,-22.11797 -14.75082,-23.67909 0,-0.32883 2.175,1.0499 4.83333,3.06386 5.46196,4.13798 27.96861,15.53241 37.83333,19.15386 6.16577,2.26352 18.20008,4.94934 29,6.47222 17.01482,2.39924 25.16217,6.87863 29.38622,16.1565 1.60653,3.52864 1.93221,5.22415 2.15689,11.22889 0.19347,5.17106 0.0159,7.54743 -0.66051,8.83838 l -0.92514,1.7657 z m 478.58543,-4.18015 c -2.9816,-1.35427 -6.66511,-5.61218 -11.33019,-13.09701 -2.87353,-4.61039 -4.93915,-6.31178 -7.66297,-6.31178 -1.20731,0 -1.30196,0.49964 -1.30196,6.87258 0,7.68456 0.50579,8.95093 4.05186,10.14488 1.21054,0.40758 2.31909,1.09539 2.46345,1.52847 0.19408,0.58222 -2.35776,0.7874 -9.79309,0.7874 -5.93016,0 -10.05555,-0.26071 -10.05555,-0.63547 0,-0.34951 1.35,-1.23264 3,-1.96251 l 3,-1.32705 v -16.95585 c 0,-18.16858 0.0476,-17.91314 -3.50373,-18.80446 -1.00628,-0.25256 -1.82961,-0.83042 -1.82961,-1.28412 0,-1.10254 16.82772,-1.88501 21.49663,-0.99957 6.73565,1.27739 9.89558,4.37944 9.93722,9.75522 0.0379,4.8887 -1.71504,7.7518 -6.48527,10.59266 -1.09214,0.65042 -0.89266,1.1508 2.29961,5.76858 1.92251,2.78101 5.2397,6.72009 7.37153,8.75351 3.36711,3.21168 4.3291,3.75723 7.32637,4.15483 2.65252,0.35187 3.40313,0.70277 3.24621,1.51756 -0.53226,2.76379 -7.55412,3.6262 -12.23051,1.50213 z m -11.83486,-24.31218 c 2.18941,-2.00644 2.46673,-2.64132 2.69364,-6.16666 0.33069,-5.13757 -1.24144,-7.87644 -5.12071,-8.92102 -3.39797,-0.91497 -5.0448,-0.11753 -5.61179,2.71739 -0.55915,2.79578 -0.54158,13.59794 0.023,14.16257 0.24445,0.24444 1.59885,0.44444 3.00979,0.44444 1.9813,0 3.12101,-0.50923 5.00603,-2.23672 z m 538.48104,24.5013 c -1.0677,-0.51922 -7.9413,-7.88296 -15.2746,-16.36385 l -13.3334,-15.4198 -0.434,3.59287 c -0.7856,6.50249 -0.6068,20.80455 0.2825,22.59287 0.4558,0.91666 1.9514,2.21637 3.3235,2.88824 1.3721,0.67186 2.4947,1.49686 2.4947,1.83333 0,0.33725 -3.5898,0.61176 -8,0.61176 -8.2929,0 -9.5637,-0.49045 -6.0198,-2.32311 1.0892,-0.56321 2.2983,-1.61826 2.687,-2.34456 0.3887,-0.72629 1.0482,-7.16283 1.4655,-14.30342 0.9434,-16.14089 0.6941,-17.33748 -4.162,-19.98053 -4.813,-2.61953 -4.0385,-3.419 3.0981,-3.19823 3.2621,0.10092 6.2787,0.30594 6.7034,0.45561 0.4247,0.14966 6.3723,6.96709 13.217,15.14984 6.8447,8.18275 12.6824,14.96445 12.9727,15.07044 0.9603,0.35068 1.3714,-3.90203 1.3714,-14.18613 0,-9.17114 -0.1305,-10.3261 -1.3414,-11.86549 -0.7378,-0.93796 -2.2378,-1.90225 -3.3334,-2.14287 -1.0955,-0.24062 -1.9918,-0.86365 -1.9918,-1.38452 0,-0.76601 1.5397,-0.94703 8.0555,-0.94703 6.1452,0 7.991,0.19762 7.7833,0.83333 -0.1498,0.45834 -1.225,1.14856 -2.3894,1.53383 -1.1644,0.38528 -2.418,1.00144 -2.7858,1.36925 -0.4082,0.40818 -0.7327,8.11998 -0.8329,19.79196 -0.1117,13.02383 -0.3954,19.21204 -0.8894,19.40173 -0.399,0.15319 -1.599,-0.14629 -2.6667,-0.66552 z m -366.30004,-1.09791 c -3.19475,-1.61102 -3.74111,-2.77975 -3.89572,-8.33334 -0.11568,-4.15535 1.75885,-3.8441 3.92113,0.65107 2.96757,6.16932 8.47605,8.2728 12.59284,4.80875 2.56525,-2.15851 3.24921,-5.35293 1.80002,-8.40686 -0.74842,-1.57719 -2.99122,-3.5266 -7.55282,-6.56482 C 850.0966,392.38603 848,389.80352 848,385.61148 c 0,-7.62685 5.20412,-12.23326 13.85475,-12.26351 5.8973,-0.0206 8.53693,1.22017 9.42883,4.43211 0.38994,1.40429 0.71066,3.37825 0.7127,4.38659 0.006,2.83845 -2.32564,2.44112 -3.91179,-0.66667 -1.77758,-3.48288 -3.54233,-4.88749 -6.66723,-5.30663 -2.34935,-0.31511 -2.94109,-0.10544 -4.71841,1.67188 -1.48215,1.48215 -2.03218,2.65662 -2.03218,4.33923 0,2.68325 1.94525,4.64707 10.19315,10.29044 5.7699,3.94788 7.81596,7.00564 7.79221,11.64519 -0.0163,3.18488 -1.78612,7.59153 -3.74894,9.33446 -3.93687,3.49584 -13.01654,4.33714 -18.26183,1.6921 z m 30.66667,0 c -3.19475,-1.61102 -3.74112,-2.77975 -3.89572,-8.33334 -0.11568,-4.15535 1.75885,-3.8441 3.92112,0.65107 2.96758,6.16932 8.47605,8.2728 12.59285,4.80875 2.56524,-2.15851 3.24921,-5.35293 1.80002,-8.40686 -0.74842,-1.57719 -2.99122,-3.5266 -7.55282,-6.56482 -7.41011,-4.93544 -9.50671,-7.51795 -9.50671,-11.70999 0,-7.62685 5.20411,-12.23326 13.85474,-12.26351 5.8973,-0.0206 8.53694,1.22017 9.42883,4.43211 0.38995,1.40429 0.71066,3.37825 0.71271,4.38659 0.006,2.83845 -2.32565,2.44112 -3.91179,-0.66667 -1.77759,-3.48288 -3.54234,-4.88749 -6.66724,-5.30663 -2.34934,-0.31511 -2.94108,-0.10544 -4.71841,1.67188 -1.48214,1.48215 -2.03218,2.65662 -2.03218,4.33923 0,2.68325 1.94526,4.64707 10.19316,10.29044 5.7699,3.94788 7.81595,7.00564 7.7922,11.64519 -0.0163,3.18488 -1.78612,7.59153 -3.74894,9.33446 -3.93687,3.49584 -13.01654,4.33714 -18.26182,1.6921 z m 40.2381,0.29457 c -8.2,-2.9087 -13.59607,-10.51589 -13.62353,-19.20601 -0.0174,-5.49942 0.41437,-7.54634 2.45245,-11.62699 1.90222,-3.80862 5.47619,-7.31696 9.51101,-9.33634 4.57294,-2.28871 13.08434,-2.60041 18.2121,-0.66695 11.81011,4.45308 16.83427,17.87286 11.34077,30.29182 -1.61967,3.66154 -5.84285,7.84034 -9.97695,9.8721 -4.2721,2.09958 -12.97191,2.42608 -17.91585,0.67237 z m 15.11184,-3.36311 c 4.40282,-2.07993 6.67092,-7.21871 6.66383,-15.09813 -0.005,-5.8437 -1.39905,-11.19283 -3.80099,-14.58742 -2.99871,-4.23799 -4.97356,-5.34049 -10.04202,-5.60615 -3.97597,-0.20839 -4.78983,-0.0301 -7.2506,1.58855 -4.13694,2.72116 -5.75737,6.11769 -6.10828,12.80333 -0.86983,16.57248 8.82172,26.43473 20.53806,20.89982 z m 36.19949,3.64168 c -3.73324,-1.2203 -8.11306,-3.84894 -10.29762,-6.18033 -3.42589,-3.65616 -4.87331,-7.44746 -5.12958,-13.43614 -0.2191,-5.12008 -0.0766,-5.86954 1.86617,-9.8159 3.7628,-7.64331 11.52253,-12.34065 21.23198,-12.85272 5.98687,-0.31574 12.98715,0.82265 14.52688,2.36237 0.63539,0.63539 0.94481,2.47355 0.94481,5.61275 0,3.98107 -0.16191,4.63621 -1.10034,4.45238 -0.60518,-0.11856 -1.50633,-1.41555 -2.00254,-2.88222 -1.09159,-3.22647 -3.38019,-5.36786 -6.73155,-6.29858 -6.10722,-1.69607 -10.69625,-0.40423 -15.28893,4.30391 -5.17489,5.30498 -6.61905,11.22756 -4.59327,18.83733 3.96006,14.8759 18.87084,19.11304 26.94667,7.65734 0.84008,-1.19167 1.99777,-2.16667 2.57264,-2.16667 0.85074,0 0.97088,0.5424 0.64566,2.9151 -0.58614,4.27638 -1.70694,6.25473 -4.04023,7.13152 -3.22451,1.21169 -16.21333,1.45077 -19.55075,0.35986 z m 170.68864,-0.27857 c -8.2,-2.9087 -13.596,-10.51589 -13.6235,-19.20601 -0.017,-5.49942 0.4144,-7.54634 2.4525,-11.62699 1.9022,-3.80862 5.4761,-7.31696 9.511,-9.33634 4.5729,-2.28871 13.0843,-2.60041 18.2121,-0.66695 11.8101,4.45308 16.8342,17.87286 11.3407,30.29182 -1.6196,3.66154 -5.8428,7.84034 -9.9769,9.8721 -4.2721,2.09958 -12.9719,2.42608 -17.9159,0.67237 z m 15.1119,-3.36311 c 4.4028,-2.07993 6.6709,-7.21871 6.6638,-15.09813 -0.01,-5.8437 -1.3991,-11.19283 -3.801,-14.58742 -2.9987,-4.23799 -4.9736,-5.34049 -10.042,-5.60615 -3.976,-0.20839 -4.7898,-0.0301 -7.2506,1.58855 -4.1369,2.72116 -5.7574,6.11769 -6.1083,12.80333 -0.8698,16.57248 8.8217,26.43473 20.5381,20.89982 z M 522,415.29932 c 0,-0.38538 1.125,-1.1691 2.5,-1.7416 1.375,-0.5725 2.72041,-1.38219 2.98979,-1.79931 0.26939,-0.41713 0.49439,-8.14668 0.5,-17.17678 0.0109,-17.59281 0.0522,-17.37705 -3.49352,-18.26697 -1.00628,-0.25256 -1.8296,-0.87668 -1.8296,-1.38693 0,-0.75152 1.90988,-0.92773 10.05555,-0.92773 7.74573,0 9.99279,0.19142 9.78232,0.83333 -0.15028,0.45834 -1.433,1.2195 -2.85047,1.69148 -4.49757,1.49755 -4.32074,0.75693 -4.32074,18.09607 0,12.58555 0.19208,16.05363 0.94626,17.08503 0.81545,1.11519 1.7764,1.29409 6.95112,1.29409 6.87228,0 8.67927,-0.86718 11.24391,-5.39601 1.46234,-2.58231 3.28253,-3.52596 3.09391,-1.60399 -0.054,0.55 -0.49739,3.025 -0.98537,5.5 l -0.88723,4.5 H 538.84796 C 527.51513,416 522,415.77063 522,415.29932 Z m 38,-0.24635 c 0,-0.52087 0.90309,-1.14538 2.00686,-1.38781 C 566.00566,412.78688 566,412.8139 566,394.59536 v -16.64274 l -3,-1.28595 c -5.17933,-2.22012 -3.82848,-2.71786 6.83333,-2.51783 9.83781,0.18458 11.74734,0.75443 7.41546,2.21296 -3.81012,1.28286 -3.91546,1.7799 -3.91546,18.47611 0,8.5861 0.28282,15.77819 0.64722,16.45908 0.35597,0.66514 1.85597,1.69299 3.33333,2.28411 C 582.08572,415.49041 580.54489,416 570,416 c -8.19585,0 -10,-0.17086 -10,-0.94703 z m 22,0.0404 c 0,-0.55584 0.87717,-1.1801 2.00686,-1.42822 3.98918,-0.87617 3.99411,-0.89912 3.98293,-18.54611 -0.006,-8.86548 -0.28024,-16.54571 -0.61029,-17.06718 -0.33004,-0.52147 -1.57792,-1.27147 -2.77305,-1.66666 -4.61843,-1.52719 -2.84057,-2.16706 7.20632,-2.59364 15.39259,-0.65355 20.60175,0.98708 22.22042,6.99834 1.2048,4.47431 -0.7426,8.78756 -4.98743,11.04654 -1.14713,0.61047 -0.91245,0.87531 2.15133,2.42785 4.21563,2.13622 5.46958,4.33802 5.46958,9.604 0,4.97438 -1.72176,7.72743 -6.31165,10.09218 -3.15238,1.62413 -3.91387,1.71615 -15.83334,1.91326 C 583.81334,416.05083 582,415.93782 582,415.09338 Z m 22.06259,-3.45908 c 2.82198,-1.4593 4.5986,-4.69385 4.60158,-8.37773 0.003,-3.45803 -1.55371,-5.98142 -4.68993,-7.60322 -2.29885,-1.18878 -6.73323,-1.29436 -7.84091,-0.18668 -1.28776,1.28776 -1.08024,14.82451 0.24762,16.15238 1.33786,1.33785 5.10953,1.34534 7.68164,0.0152 z m -0.44974,-21.06442 c 3.89905,-1.77652 4.66652,-8.77536 1.32833,-12.11355 -1.86013,-1.86013 -6.34669,-2.8214 -8.29692,-1.77767 -1.16606,0.62405 -1.31093,1.42099 -1.31093,7.21146 0,4.31012 0.2816,6.79711 0.83334,7.35989 0.9165,0.93484 4.6502,0.59381 7.44618,-0.68013 z m 17.72048,24.7724 c 0,-0.36175 1.11449,-1.12338 2.47664,-1.69252 1.36215,-0.56915 2.70756,-1.39817 2.98979,-1.84228 0.65535,-1.03123 0.67729,-32.55333 0.0234,-33.56589 -0.26938,-0.41712 -1.61479,-1.22681 -2.98979,-1.79931 -1.375,-0.5725 -2.5,-1.34485 -2.5,-1.71634 0,-0.73248 28.30324,-1.36641 29.44315,-0.65946 1.12162,0.69561 1.79213,7.85164 0.81191,8.66515 -0.6549,0.54352 -1.08522,0.16759 -1.81933,-1.5894 -1.47307,-3.52554 -3.33765,-4.47556 -8.78406,-4.47556 -2.78093,0 -5.04682,0.32849 -5.51833,0.8 -0.52247,0.52247 -0.8,3.27304 -0.8,7.92867 0,7.84081 0.0532,7.93799 4.34446,7.93799 3.39947,0 5.56596,-1.07763 6.05089,-3.00977 0.27364,-1.09025 0.82067,-1.64886 1.48869,-1.52021 0.86927,0.1674 1.04712,1.20014 1.00536,5.83802 -0.0565,6.27949 -0.96494,7.6029 -2.5745,3.75068 L 643.98211,396 h -4.65772 -4.65772 v 7.6513 c 0,7.44724 0.0449,7.68073 1.68442,8.75497 1.32142,0.86583 2.71452,1.02998 6.46431,0.76168 4.41706,-0.31604 4.93441,-0.51604 6.81558,-2.63485 1.11963,-1.26107 2.37962,-2.87191 2.79997,-3.57964 0.56245,-0.94697 0.96769,-1.09283 1.53449,-0.55231 0.58235,0.55535 0.57577,1.53094 -0.027,4 -1.47951,6.06038 -0.0538,5.59885 -17.29522,5.59885 -9.6233,0 -15.30988,-0.2443 -15.30988,-0.65772 z m 82.36636,0.0445 c -0.20845,-0.33728 0.88724,-1.31228 2.43486,-2.16667 1.54761,-0.85439 3.43136,-2.47027 4.1861,-3.59084 1.39346,-2.06889 9.02203,-20.77856 11.94495,-29.29593 1.01889,-2.96903 2.10902,-4.93071 2.99668,-5.39252 0.76736,-0.39922 1.99911,-1.27238 2.73722,-1.94035 0.7381,-0.66798 1.44425,-1.09135 1.56921,-0.94082 0.12496,0.15053 2.70686,7.92369 5.73754,17.27369 6.92299,21.3582 7.30272,22.17934 11.07703,23.95348 1.62253,0.76268 2.95005,1.68515 2.95005,2.04994 0,0.41136 -3.92436,0.66325 -10.33333,0.66325 -8.68166,0 -10.33333,-0.15781 -10.33333,-0.9873 0,-0.54301 0.825,-1.18331 1.83333,-1.42287 1.00833,-0.23957 2.35348,-0.88739 2.98922,-1.4396 1.22663,-1.06549 1.18925,-1.58811 -0.57273,-8.00661 l -0.96713,-3.52304 -6.80802,0.18971 -6.80801,0.18971 -1.11322,3.33333 c -0.61227,1.83334 -1.13727,4.30224 -1.16666,5.48645 -0.0462,1.86247 0.30653,2.33677 2.61322,3.51355 1.46666,0.74824 2.66666,1.65434 2.66666,2.01355 0,0.83976 -17.11536,0.87847 -17.63364,0.0399 z m 26.71821,-19.2201 c -2.1074,-7.26078 -4.60192,-14.87154 -4.80708,-14.66638 -0.3854,0.3854 -5.61082,14.59773 -5.61082,15.26055 0,0.31487 2.42022,0.57249 5.37826,0.57249 4.8067,0 5.34227,-0.12398 5.03964,-1.16666 z M 750,415.29932 c 0,-0.38538 1.125,-1.1691 2.5,-1.7416 1.375,-0.5725 2.72041,-1.38219 2.98979,-1.79931 0.26939,-0.41713 0.49439,-8.14668 0.5,-17.17678 0.0109,-17.59281 0.0522,-17.37705 -3.49352,-18.26697 -1.00628,-0.25256 -1.8296,-0.87668 -1.8296,-1.38693 0,-0.75152 1.90988,-0.92773 10.05555,-0.92773 7.74573,0 9.99279,0.19142 9.78232,0.83333 -0.15028,0.45834 -1.433,1.2195 -2.85047,1.69148 -4.49757,1.49755 -4.32074,0.75693 -4.32074,18.09607 0,12.58555 0.19208,16.05363 0.94626,17.08503 0.81545,1.11519 1.7764,1.29409 6.95112,1.29409 6.87228,0 8.67927,-0.86718 11.24391,-5.39601 1.46234,-2.58231 3.28253,-3.52596 3.09391,-1.60399 -0.054,0.55 -0.49739,3.025 -0.98537,5.5 l -0.88723,4.5 H 766.84796 C 755.51513,416 750,415.77063 750,415.29932 Z m 49.69969,0.0874 c -0.20845,-0.33728 0.88724,-1.31228 2.43486,-2.16667 1.54761,-0.85439 3.43136,-2.47027 4.1861,-3.59084 1.39346,-2.06889 9.02203,-20.77856 11.94495,-29.29593 1.01889,-2.96903 2.10902,-4.93071 2.99668,-5.39252 0.76736,-0.39922 1.99911,-1.27238 2.73722,-1.94035 0.7381,-0.66798 1.44425,-1.09135 1.56921,-0.94082 0.12496,0.15053 2.70686,7.92369 5.73754,17.27369 6.92299,21.3582 7.30272,22.17934 11.07703,23.95348 1.62253,0.76268 2.95005,1.68515 2.95005,2.04994 0,0.41136 -3.92436,0.66325 -10.33333,0.66325 -8.68166,0 -10.33333,-0.15781 -10.33333,-0.9873 0,-0.54301 0.825,-1.18331 1.83333,-1.42287 1.00833,-0.23957 2.35348,-0.88739 2.98922,-1.4396 1.22663,-1.06549 1.18925,-1.58811 -0.57273,-8.00661 l -0.96713,-3.52304 -6.80802,0.18971 -6.80801,0.18971 -1.11322,3.33333 c -0.61227,1.83334 -1.13727,4.30224 -1.16666,5.48645 -0.0462,1.86247 0.30653,2.33677 2.61322,3.51355 1.46666,0.74824 2.66666,1.65434 2.66666,2.01355 0,0.83976 -17.11536,0.87847 -17.63364,0.0399 z m 26.71821,-19.2201 c -2.1074,-7.26078 -4.60192,-14.87154 -4.80708,-14.66638 -0.3854,0.3854 -5.61082,14.59773 -5.61082,15.26055 0,0.31487 2.42022,0.57249 5.37826,0.57249 4.8067,0 5.34227,-0.12398 5.03964,-1.16666 z m 174.9154,18.8863 c 0,-0.52087 0.9031,-1.14538 2.0069,-1.38781 3.9988,-0.87828 3.9931,-0.85126 3.9931,-19.0698 v -16.64274 l -3,-1.28595 c -5.17929,-2.22012 -3.8284,-2.71786 6.8334,-2.51783 9.8378,0.18458 11.7473,0.75443 7.4154,2.21296 -3.8101,1.28286 -3.9154,1.7799 -3.9154,18.47611 0,8.5861 0.2828,15.77819 0.6472,16.45908 0.356,0.66514 1.856,1.69299 3.3333,2.28411 4.7718,1.90931 3.231,2.4189 -7.3139,2.4189 -8.1958,0 -10,-0.17086 -10,-0.94703 z m 21.0331,0.3338 c -0.2085,-0.33728 0.8872,-1.31228 2.4348,-2.16667 1.5476,-0.85439 3.4314,-2.47027 4.1861,-3.59084 1.3935,-2.06889 9.022,-20.77856 11.945,-29.29593 1.0189,-2.96903 2.109,-4.93071 2.9966,-5.39252 0.7674,-0.39922 1.9992,-1.27238 2.7373,-1.94035 0.7381,-0.66798 1.4442,-1.09135 1.5692,-0.94082 0.1249,0.15053 2.7068,7.92369 5.7375,17.27369 6.923,21.3582 7.3027,22.17934 11.077,23.95348 1.6226,0.76268 2.9501,1.68515 2.9501,2.04994 0,0.41136 -3.9244,0.66325 -10.3333,0.66325 -8.6817,0 -10.3334,-0.15781 -10.3334,-0.9873 0,-0.54301 0.825,-1.18331 1.8334,-1.42287 1.0083,-0.23957 2.3534,-0.88739 2.9892,-1.4396 1.2266,-1.06549 1.1892,-1.58811 -0.5727,-8.00661 l -0.9672,-3.52304 -6.808,0.18971 L 1037,401 l -1.1132,3.33333 c -0.6123,1.83334 -1.1373,4.30224 -1.1667,5.48645 -0.046,1.86247 0.3065,2.33677 2.6132,3.51355 1.4667,0.74824 2.6667,1.65434 2.6667,2.01355 0,0.83976 -17.1154,0.87847 -17.6336,0.0399 z m 26.7182,-19.2201 c -2.1074,-7.26078 -4.602,-14.87154 -4.8071,-14.66638 -0.3854,0.3854 -5.6108,14.59773 -5.6108,15.26055 0,0.31487 2.4202,0.57249 5.3782,0.57249 4.8067,0 5.3423,-0.12398 5.0397,-1.16666 z m 23.9439,19.21273 c -0.4576,-0.74035 -0.115,-0.96165 3.0848,-1.99262 3.5623,-1.14774 3.8994,-2.76955 3.8078,-18.3196 -0.1,-16.97437 -0.1548,-17.24704 -3.5925,-17.83375 -4.1794,-0.71331 -7.5986,0.34432 -10.1632,3.14375 -3.135,3.42206 -3.9699,2.31285 -2.2043,-2.92838 0.7547,-2.24037 1.3722,-4.53287 1.3722,-5.09444 0,-1.46031 1.3257,-1.26054 3.1784,0.47897 1.5576,1.4624 1.9681,1.5 16.3763,1.5 13.4666,0 14.9692,-0.11526 16.9248,-1.29829 1.1804,-0.71405 2.3376,-1.10682 2.5716,-0.87281 0.5438,0.5437 -0.3219,9.32469 -1.0326,10.47458 -0.7687,1.24379 -1.845,0.33723 -2.3547,-1.98333 -0.2413,-1.09885 -1.0596,-2.33015 -1.8184,-2.73623 -2.01,-1.07572 -10.2383,-1.11348 -11.3073,-0.0519 -1.2113,1.20296 -1.6552,30.10427 -0.505,32.88111 0.5642,1.36209 1.5393,2.13804 3.38,2.6895 1.4228,0.42629 2.5869,1.17759 2.5869,1.66956 0,0.70827 -2.0734,0.89447 -9.9606,0.89447 -5.4784,0 -10.1333,-0.27927 -10.3442,-0.6206 z M 1106,415.05297 c 0,-0.52087 0.9031,-1.14538 2.0069,-1.38781 3.9988,-0.87828 3.9931,-0.85126 3.9931,-19.0698 v -16.64274 l -3,-1.28595 c -5.1793,-2.22012 -3.8285,-2.71786 6.8333,-2.51783 9.8378,0.18458 11.7474,0.75443 7.4155,2.21296 -3.8101,1.28286 -3.9155,1.7799 -3.9155,18.47611 0,8.5861 0.2828,15.77819 0.6473,16.45908 0.3559,0.66514 1.8559,1.69299 3.3333,2.28411 4.7718,1.90931 3.231,2.4189 -7.3139,2.4189 -8.1959,0 -10,-0.17086 -10,-0.94703 z m -883.33333,-8.9547 c 0,-23.51627 -12.83208,-36.29225 -52.33334,-52.10455 -22.67819,-9.07804 -40.98998,-18.38771 -49.62674,-25.23008 C 113.36477,322.94716 103.82272,313.2128 100.35314,308 92.372028,296.00892 87.349,278.80226 86.239904,259.65434 85.778705,251.69201 86.410211,242 87.390213,242 87.725596,242 88,242.33856 88,242.75235 c 0,1.32712 5.157106,12.87418 7.726038,17.29904 6.946982,11.96585 20.072502,26.10732 33.607292,36.20858 9.06885,6.76824 26.03502,16.32172 46.33334,26.08982 22.45746,10.80714 27.70512,13.77396 35.7553,20.21464 9.35109,7.4815 14.31059,14.80241 16.33854,24.11799 1.29062,5.9286 1.45114,20.08055 0.30606,26.98425 -0.92712,5.58958 -3.91965,16.41181 -4.78375,17.3 -0.37848,0.38903 -0.61615,-1.48885 -0.61615,-4.8684 z m 76.66666,3.48085 c 0,-0.23149 1.55459,-3.15649 3.45465,-6.5 14.33904,-25.23234 31.18441,-41.83885 48.21202,-47.52838 5.24722,-1.75328 5.71547,-1.78946 29,-2.24061 21.22015,-0.41116 24.21799,-0.60656 29,-1.89025 13.53377,-3.63301 24.00895,-9.10448 34.9576,-18.25929 8.36882,-6.99765 22.18799,-20.70195 26.87202,-26.64862 2.24348,-2.84825 4.3246,-5.17864 4.62472,-5.17864 0.78459,0 0.67552,2.15448 -0.47253,9.33334 -5.35388,33.47827 -30.76223,63.61836 -65.1328,77.26232 -12.29251,4.87971 -28.75527,7.8731 -39.07832,7.10554 -2.80721,-0.20873 -10.93937,-0.85258 -18.07147,-1.43077 -14.01682,-1.13633 -19.74143,-0.77894 -26.88374,1.67838 -6.21309,2.13761 -15.49233,7.20813 -22.28701,12.17843 -3.47509,2.54203 -4.19514,2.90565 -4.19514,2.11855 z m -60.94425,-26.91245 c 0.58545,-9.89982 -0.75606,-30.60706 -2.40262,-37.0865 -1.67358,-6.58576 -5.54715,-14.70349 -9.525,-19.96128 -4.64164,-6.13515 -16.84245,-17.57612 -23.16517,-21.72248 -3.09629,-2.0305 -10.37242,-6.28519 -16.16918,-9.45486 C 165.15145,282.42523 145.08317,268.4964 134.66667,258.03021 117.64075,240.92308 107.80032,223.17143 101.94392,199 99.94346,190.7434 99.391612,171.68414 100.90136,162.99285 102.13293,155.90289 104.46727,148 105.32991,148 c 0.33532,0 0.7945,1.125 1.02041,2.5 1.91592,11.66149 9.23213,28.51992 18.56763,42.78456 17.91009,27.36662 32.76838,40.03831 79.74872,68.01259 11.34086,6.75287 20.47061,13.78515 29.0067,22.34269 12.65743,12.68924 17.9975,21.51416 20.34436,33.62075 3.54001,18.2616 -0.26938,41.28724 -10.30988,62.31755 -1.94889,4.08202 -4.03602,8.02186 -4.63808,8.75519 -1.02524,1.2488 -1.0684,0.8895 -0.68069,-5.66666 z M 762,341.25517 c -3.2404,-0.96307 -5.43441,-3.22184 -10.50226,-10.81226 -4.22598,-6.32951 -6.49552,-8.30348 -8.61271,-7.49104 -1.07619,0.41297 -1.24446,10.01595 -0.2226,12.70364 0.39174,1.03037 1.61761,2.14142 3,2.71902 4.22664,1.766 2.69736,2.29214 -6.66243,2.29214 -5.01706,0 -9,-0.27074 -9,-0.61176 0,-0.33647 1.125,-1.16147 2.5,-1.83334 L 735,337 v -15.94052 -15.94052 l -2.33333,-0.78563 c -1.28334,-0.43209 -2.25656,-1.05886 -2.16273,-1.39281 0.0939,-0.33417 5.18983,-0.60719 11.33333,-0.60719 12.49918,0 14.53891,0.54863 16.55829,4.45367 1.68444,3.25736 1.00302,8.70942 -1.40234,11.22008 -1.04206,1.08767 -2.44182,2.15125 -3.1106,2.36351 -1.7846,0.56641 -1.54647,1.33022 1.93652,6.21142 6.17379,8.65217 9.42983,11.41799 13.44174,11.41799 4.54099,0 2.72384,3.33298 -2.0255,3.71514 -1.59613,0.12844 -3.95205,-0.0786 -5.23538,-0.45997 z m -12.15688,-22.87204 c 2.35357,-2.15824 2.48897,-2.50329 2.4676,-6.28833 -0.0258,-4.56441 -1.09188,-6.25581 -4.69202,-7.44396 -3.26282,-1.07683 -4.66882,-0.0616 -5.19105,3.74852 -0.6804,4.96411 -0.49749,10.59747 0.37235,11.46731 1.51462,1.51462 4.44724,0.8969 7.04312,-1.48354 z M 1046,341.25517 c -3.2404,-0.96307 -5.4344,-3.22184 -10.5023,-10.81226 -4.2259,-6.32951 -6.4955,-8.30348 -8.6127,-7.49104 -1.0762,0.41297 -1.2444,10.01595 -0.2226,12.70364 0.3918,1.03037 1.6176,2.14142 3,2.71902 4.2267,1.766 2.6974,2.29214 -6.6624,2.29214 -5.0171,0 -9,-0.27074 -9,-0.61176 0,-0.33647 1.125,-1.16147 2.5,-1.83334 L 1019,337 v -15.94052 -15.94052 l -2.3333,-0.78563 c -1.2834,-0.43209 -2.2566,-1.05886 -2.1628,-1.39281 0.094,-0.33417 5.1899,-0.60719 11.3334,-0.60719 12.4992,0 14.5389,0.54863 16.5583,4.45367 1.6844,3.25736 1.003,8.70942 -1.4024,11.22008 -1.042,1.08767 -2.4418,2.15125 -3.1106,2.36351 -1.7846,0.56641 -1.5465,1.33022 1.9365,6.21142 6.1738,8.65217 9.4299,11.41799 13.4418,11.41799 4.541,0 2.7238,3.33298 -2.0255,3.71514 -1.5961,0.12844 -3.9521,-0.0786 -5.2354,-0.45997 z m -12.1569,-22.87204 c 2.3536,-2.15824 2.489,-2.50329 2.4676,-6.28833 -0.026,-4.56441 -1.0919,-6.25581 -4.692,-7.44396 -3.2628,-1.07683 -4.6688,-0.0616 -5.191,3.74852 -0.6805,4.96411 -0.4975,10.59747 0.3723,11.46731 1.5146,1.51462 4.4472,0.8969 7.0431,-1.48354 z m -450.95898,21.55449 c -8.71249,-3.35001 -13.74373,-13.24212 -11.55507,-22.7189 1.5587,-6.74909 5.1534,-11.32559 11.00428,-14.0098 5.02066,-2.30332 13.40137,-2.18782 18.04231,0.24864 3.85111,2.02182 7.9262,6.22617 9.48197,9.78273 1.68242,3.8461 1.43752,12.26698 -0.48313,16.61266 -1.91186,4.3258 -6.87475,8.95762 -11.16377,10.41903 -4.26981,1.45487 -11.05842,1.30677 -15.32659,-0.33436 z m 12.5164,-2.02997 c 5.47545,-1.83393 8.14128,-6.73878 8.09102,-14.88662 -0.0701,-11.36308 -5.32033,-18.51982 -13.53951,-18.45616 -7.64475,0.0592 -11.49238,5.14535 -11.42443,15.1018 0.0586,8.58017 3.07757,15.00861 8.25125,17.56951 3.25645,1.61191 5.33139,1.7735 8.62167,0.67147 z m 102.81693,2.02997 c -8.71249,-3.35001 -13.74372,-13.24212 -11.55507,-22.7189 1.5587,-6.74909 5.15341,-11.32559 11.00429,-14.0098 5.02065,-2.30332 13.40136,-2.18782 18.0423,0.24864 3.85112,2.02182 7.92621,6.22617 9.48197,9.78273 1.68242,3.8461 1.43752,12.26698 -0.48312,16.61266 -1.91186,4.3258 -6.87476,8.95762 -11.16378,10.41903 -4.26981,1.45487 -11.05842,1.30677 -15.32659,-0.33436 z m 12.5164,-2.02997 c 5.47545,-1.83393 8.14129,-6.73878 8.09102,-14.88662 -0.0701,-11.36308 -5.32032,-18.51982 -13.53951,-18.45616 -7.64474,0.0592 -11.49238,5.14535 -11.42443,15.1018 0.0586,8.58017 3.07758,15.00861 8.25125,17.56951 3.25646,1.61191 5.33139,1.7735 8.62167,0.67147 z M 782.5,340.83623 c -5.04167,-0.11396 -9.16667,-0.47402 -9.16667,-0.80014 0,-0.32612 1.125,-1.14265 2.5,-1.81452 l 2.5,-1.22157 0.1794,-15.24969 c 0.12073,-10.26306 -0.0578,-15.53552 -0.54607,-16.12381 -0.399,-0.48077 -1.60473,-1.06725 -2.67939,-1.30328 -1.07467,-0.23604 -1.95394,-0.82719 -1.95394,-1.31368 0,-1.08199 17.04322,-1.70504 24.22239,-0.8855 11.13813,1.27148 17.6231,8.80946 17.00394,19.76501 -0.28988,5.12917 -2.05684,9.10128 -5.78329,13.00077 -5.27635,5.52137 -8.89091,6.33936 -26.27637,5.94641 z m 16.82127,-4.16341 c 8.55081,-4.3623 10.67532,-18.74739 3.96673,-26.85883 -3.01902,-3.65034 -6.686,-5.30883 -11.8453,-5.35737 -6.31904,-0.0594 -6.21543,-0.35021 -5.97545,16.77011 0.19673,14.0352 0.22061,14.24388 1.77327,15.5 2.19165,1.77307 8.55524,1.74467 12.08075,-0.0539 z m 44.3454,3.85615 c -3.362,-1.1752 -6.12051,-3.66978 -7.7526,-7.01084 -1.42072,-2.90836 -1.57777,-4.24661 -1.80932,-15.41785 l -0.25357,-12.23305 -2.25793,-1.33222 c -1.24186,-0.73271 -2.09067,-1.60284 -1.88625,-1.93361 0.61378,-0.9931 15.62633,-0.76204 15.62633,0.24051 0,0.46306 -0.66967,1.13806 -1.48816,1.5 -2.55462,1.12969 -3.15816,3.42813 -3.16868,12.0671 -0.0111,9.11524 0.74963,14.21391 2.47758,16.60586 1.92466,2.66425 6.43615,4.53805 9.96772,4.14 7.86382,-0.88637 10.79841,-7.34672 9.91235,-21.82154 -0.5498,-8.98168 -0.79359,-9.84136 -3.13405,-11.05166 -1.06903,-0.55282 -1.76617,-1.29234 -1.54921,-1.6434 C 858.56784,302.28722 861.55995,302 865,302 c 3.44005,0 6.43216,0.28722 6.64912,0.63827 0.21696,0.35106 -0.50644,1.10416 -1.60756,1.67357 -1.10112,0.56941 -2.26987,1.55719 -2.59722,2.19506 -0.32735,0.63787 -0.78875,6.07218 -1.02534,12.07625 -0.47092,11.95057 -1.20155,14.73084 -4.82105,18.3456 -3.02198,3.01802 -6.6654,4.38055 -11.59795,4.33731 -2.38333,-0.0209 -5.23333,-0.35259 -6.33333,-0.73709 z m 64.24697,-0.69895 C 906.94947,339.00684 901.37297,332.78333 895.5214,326 c -5.85156,-6.78333 -11.1377,-12.74507 -11.74697,-13.2483 -1.02544,-0.84697 -1.107,-0.0295 -1.09755,11 0.006,6.55323 0.24112,12.27833 0.52336,12.72244 0.28223,0.44411 1.62764,1.27314 2.98979,1.84228 4.18644,1.74921 2.94441,2.35025 -4.8567,2.35025 -7.60041,0 -8.835,-0.52255 -5.41412,-2.29156 1.05557,-0.54585 2.12705,-1.52856 2.38106,-2.18379 0.25401,-0.65522 0.78738,-6.75239 1.18525,-13.54926 0.83081,-14.19262 0.57198,-15.40248 -3.77798,-17.6598 -4.52284,-2.34702 -3.85452,-2.98702 3.07024,-2.94013 l 6.22222,0.0421 11.33333,13.65875 c 6.23334,7.51231 11.70834,13.98008 12.16667,14.37283 0.66241,0.56761 0.83333,-1.84002 0.83333,-11.73837 v -12.45245 l -3.07081,-1.35837 c -1.92347,-0.85085 -2.83592,-1.59326 -2.44214,-1.98704 0.79412,-0.79412 14.12864,-0.45875 14.34941,0.3609 0.0899,0.33395 -0.82646,0.94052 -2.03645,1.34792 -1.21,0.4074 -2.48567,1.18417 -2.83483,1.72615 -0.35959,0.55817 -0.62487,8.06693 -0.61186,17.31874 0.0126,8.98334 0.0133,16.70834 10e-4,17.16667 -0.0347,1.34825 -2.87791,0.94928 -4.7745,-0.66998 z m 49.82686,0.95611 c -0.20993,-0.33967 -3.07447,-7.54535 -6.36564,-16.01263 -7.23665,-18.61789 -7.6055,-19.35753 -10.08429,-20.22164 -1.07648,-0.37526 -1.95724,-1.10295 -1.95724,-1.61708 0,-0.75577 1.72351,-0.93478 9,-0.93478 7.08366,0 9,0.19046 9,0.89447 0,0.49197 -1.2,1.25401 -2.66666,1.69343 -1.46667,0.43943 -2.67309,1.16191 -2.68095,1.60553 -0.021,1.18486 8.27871,23.78183 8.73978,23.7952 0.2157,0.006 2.2556,-4.96854 4.53313,-11.0551 3.92002,-10.47604 4.08538,-11.15127 3.09939,-12.65608 -0.57285,-0.87429 -1.78776,-1.7769 -2.69979,-2.0058 C 964.74621,304.04274 964,303.43798 964,302.92773 964,302.18674 965.61032,302 972,302 c 8.35731,0 9.89333,0.61029 5.8198,2.31232 -1.19911,0.50102 -2.69865,1.48382 -3.3323,2.18399 -0.63365,0.70018 -4.22764,8.72498 -7.98664,17.83288 -6.35528,15.39857 -7.7709,18.05791 -8.76036,16.45694 z m 103.1612,-0.78041 c -3.0148,-1.53823 -3.5453,-2.65691 -3.5593,-7.50572 -0.012,-4.2857 1.3506,-4.1557 3.5494,0.33857 1.938,3.96105 4.496,5.8281 7.9851,5.8281 4.724,0 7.4916,-6.32338 4.4564,-10.182 -0.7334,-0.93233 -3.8084,-3.34557 -6.8334,-5.36276 -3.0249,-2.01719 -6.0499,-4.60844 -6.7221,-5.75834 -1.3279,-2.2714 -1.5966,-6.71228 -0.5667,-9.36357 2.0342,-5.23646 9.7884,-7.95528 16.9873,-5.95618 2.7208,0.75554 3.3103,1.69625 4.0461,6.45618 0.3864,2.50021 0.2877,2.83333 -0.8399,2.83333 -0.8037,0 -1.9105,-1.07937 -2.9824,-2.90856 -0.9855,-1.68164 -2.5404,-3.25478 -3.686,-3.72931 -3.9962,-1.65526 -8.0695,0.73321 -8.0695,4.73169 0,3.03858 0.6637,3.86494 5.919,7.36954 8.656,5.77234 10.2249,7.814 10.1828,13.25128 -0.031,3.95047 -1.3766,6.66431 -4.4786,9.03037 -2.0032,1.52793 -3.1859,1.85526 -7.5007,2.07602 -4.2427,0.21708 -5.5974,0.0198 -7.8875,-1.14864 z m -450.23503,0.0725 c 0,-0.32363 1.57874,-1.36084 3.50833,-2.30489 1.92958,-0.94406 4.43715,-2.70427 5.57238,-3.91157 2.94247,-3.12928 8.91929,-11.14671 8.91929,-11.96452 0,-0.88752 -7.58028,-11.54939 -10.27307,-14.44936 -1.13315,-1.22033 -3.03527,-2.63002 -4.22693,-3.13265 -4.22485,-1.78198 -2.49741,-2.31524 7.5,-2.31524 7.90784,0 9.66666,0.17231 9.66666,0.94703 0,0.52087 -0.92027,1.14916 -2.04504,1.3962 -1.12478,0.24704 -2.20284,0.86037 -2.3957,1.36296 -0.28983,0.75528 6.66769,11.62714 7.44086,11.62714 0.5883,0 7.66655,-10.26505 7.66655,-11.11821 0,-0.52313 -0.9,-1.26489 -2,-1.64835 -1.1,-0.38346 -2,-1.11786 -2,-1.63199 0,-0.74528 1.48665,-0.93478 7.33333,-0.93478 6.07408,0 7.33334,0.17172 7.33334,1 0,0.55 -0.46286,1 -1.02856,1 -2.03008,0 -14.97144,13.80168 -14.97144,15.96671 0,1.05412 9.37753,14.57736 11.43401,16.48888 0.86129,0.80058 2.39099,1.76815 3.39932,2.15017 3.95465,1.49825 1.81606,2.06091 -7.83333,2.06091 -5.31667,0 -9.66667,-0.27037 -9.66667,-0.60082 0,-0.33045 1.07934,-1.23764 2.39853,-2.01598 1.56721,-0.92468 2.26793,-1.7555 2.02172,-2.3971 -0.95106,-2.47842 -7.28011,-11.05935 -7.78402,-10.55358 -1.75861,1.76508 -7.96956,10.60457 -7.96956,11.34236 0,0.48064 1.05,1.31261 2.33333,1.84882 4.2694,1.78387 2.77356,2.3763 -6,2.3763 -4.58333,0 -8.33333,-0.2648 -8.33333,-0.58844 z m 44,-0.0233 c 0,-0.33647 1.125,-1.16147 2.5,-1.83334 l 2.5,-1.22157 v -15.66142 -15.66142 l -2.58709,-1.21816 c -1.47311,-0.69364 -2.33429,-1.46664 -2,-1.79521 0.3229,-0.31737 6.58709,-0.64493 13.92042,-0.7279 l 13.33333,-0.15086 0.19713,4.44082 c 0.21955,4.94598 -0.61476,5.7918 -2.13174,2.16114 -1.26117,-3.0184 -2.77773,-3.72032 -8.03806,-3.72032 -4.14548,0 -4.43181,0.10034 -5.06902,1.77632 -0.37144,0.97697 -0.58902,4.20197 -0.4835,7.16666 L 667,319 l 4.02405,0.19478 c 3.58039,0.1733 4.19959,0.008 5.61621,-1.5 0.87569,-0.93213 1.83986,-1.69478 2.14262,-1.69478 0.30275,0 0.55045,2.25 0.55045,5 0,2.75 -0.24358,5 -0.54129,5 -0.29771,0 -1.20669,-0.9 -2.01996,-2 -1.31761,-1.78217 -1.86132,-2 -4.99204,-2 -1.93235,0 -3.87337,0.36 -4.31337,0.8 -0.85688,0.85688 -1.00877,9.59934 -0.21776,12.53333 0.27539,1.02147 1.41102,2.13956 2.93355,2.88824 1.36631,0.67187 2.48421,1.49687 2.48421,1.83334 0,0.34102 -3.98294,0.61176 -9,0.61176 -5.01706,0 -9,-0.27074 -9,-0.61176 z m 264.82312,-0.19095 c 0.14716,-0.44149 1.18443,-1.04029 2.30505,-1.33067 1.12061,-0.29038 2.38093,-0.9418 2.80071,-1.44761 0.5362,-0.64607 0.70988,-5.45449 0.58385,-16.16452 L 925,305.67628 l -2.5,-1.17672 c -1.375,-0.6472 -2.5,-1.47436 -2.5,-1.83814 0,-0.40479 3.49204,-0.66142 9,-0.66142 9.41875,0 11.00841,0.5622 6.69071,2.36625 -1.27011,0.53069 -2.62011,1.54566 -3,2.25549 -0.94597,1.76755 -0.91991,27.70432 0.0296,29.47853 0.39618,0.74027 1.74618,1.77457 3,2.29845 4.20239,1.75587 2.59722,2.26795 -7.10922,2.26795 -7.02375,0 -9.32149,-0.20221 -9.12132,-0.80271 z m 61.84354,0.19095 c 0,-0.33647 1.125,-1.16147 2.5,-1.83334 l 2.5,-1.22157 0.1794,-15.24969 c 0.12073,-10.26306 -0.0578,-15.53552 -0.54607,-16.12381 -0.399,-0.48077 -1.60473,-1.06725 -2.67939,-1.30328 -1.07467,-0.23604 -1.95394,-0.85532 -1.95394,-1.37619 0,-0.78729 2.29213,-0.94703 13.58892,-0.94703 15.39905,0 14.38195,-0.41198 14.40195,5.83333 0.011,3.41919 -0.9619,3.65766 -2.2588,0.55366 -0.5239,-1.25382 -1.5582,-2.60382 -2.2985,-3 -2.0097,-1.0756 -9.76991,-0.92162 -10.71118,0.21253 -0.49967,0.60207 -0.70591,3.14335 -0.58163,7.16667 l 0.19258,6.23381 4.19004,0.19909 c 4.13859,0.19664 4.19879,0.17413 4.89859,-1.83334 0.3896,-1.11783 1.1291,-2.03242 1.6433,-2.03242 0.7286,0 0.9347,1.24979 0.9347,5.66667 0,6.21438 -0.8702,7.35188 -2.6666,3.48557 -0.9641,-2.07496 -1.1437,-2.15224 -5.00003,-2.15224 h -4 l -0.18922,6.76317 c -0.23729,8.48171 0.0715,8.9035 6.51902,8.9035 3.92083,0 4.85343,-0.24024 6.58343,-1.69595 1.1085,-0.93277 2.2018,-2.28277 2.4294,-3 0.2276,-0.71723 0.8832,-1.30405 1.4567,-1.30405 0.8235,0 0.9685,0.52585 0.6892,2.5 -0.1945,1.375 -0.6765,3.325 -1.0712,4.33333 l -0.7177,1.83334 h -14.01647 c -8.06124,0 -14.0165,-0.25993 -14.0165,-0.61176 z m 102.82317,-0.19095 c 0.1471,-0.44149 1.1844,-1.04029 2.305,-1.33067 1.1206,-0.29038 2.3809,-0.9418 2.8007,-1.44761 0.5362,-0.64607 0.7099,-5.45449 0.5839,-16.16452 l -0.1794,-15.24488 -2.5,-1.17672 c -1.375,-0.6472 -2.5,-1.47436 -2.5,-1.83814 0,-0.40479 3.492,-0.66142 9,-0.66142 9.4187,0 11.0084,0.5622 6.6907,2.36625 -1.2701,0.53069 -2.6201,1.54566 -3,2.25549 -0.946,1.76755 -0.9199,27.70432 0.03,29.47853 0.3962,0.74027 1.7462,1.77457 3,2.29845 4.2024,1.75587 2.5972,2.26795 -7.1092,2.26795 -7.0238,0 -9.3215,-0.20221 -9.1213,-0.80271 z m 30.6629,0.011 c 0.1452,-0.43542 1.1452,-1.0757 2.2223,-1.42285 3.703,-1.1935 3.625,-0.8238 3.625,-17.17699 0,-14.37342 -0.072,-15.26699 -1.2895,-15.91837 -3.0734,-1.64482 -8.541,-0.23486 -11.2061,2.88976 -2.7316,3.20259 -3.7038,1.7834 -1.8378,-2.68271 0.55,-1.31634 1.0046,-2.8817 1.0102,-3.47859 0.01,-0.59689 0.2899,-1.52739 0.6316,-2.06778 0.5228,-0.82667 0.8998,-0.72092 2.3768,0.66667 1.7507,1.64467 1.7933,1.64919 15.5351,1.64919 12.3298,0 13.9719,-0.13035 15.6062,-1.23889 1.6445,-1.11541 1.8676,-1.13202 2.238,-0.16666 0.3474,0.90537 1.6971,1.07222 8.6735,1.07222 6.8995,0 8.262,0.1649 8.262,1 0,0.55 -0.3927,1 -0.8726,1 -0.4799,0 -1.4252,0.4041 -2.1007,0.89799 -1.163,0.85047 -1.0444,1.23768 2.2423,7.31648 1.9087,3.53016 3.7433,6.58713 4.0768,6.79326 0.9881,0.61068 7.3208,-10.36385 7.3208,-12.68691 0,-0.58127 -0.9,-1.37059 -2,-1.75405 -1.1,-0.38346 -2,-1.11786 -2,-1.63199 0,-0.74224 1.4337,-0.93478 6.9607,-0.93478 3.8283,0 7.1404,0.29092 7.3602,0.64649 0.2198,0.35557 -0.6448,1.08283 -1.9211,1.61613 -2.96,1.23674 -4.2344,2.73457 -9.4641,11.12285 l -4.269,6.84735 0.01,6.71692 c 0.01,3.69431 0.2411,7.08029 0.5234,7.5244 0.2822,0.44411 1.6276,1.27314 2.9898,1.84228 4.4026,1.83955 2.9127,2.35025 -6.8567,2.35025 -9.652,0 -11.2511,-0.51417 -7.0537,-2.26795 3.2778,-1.36956 3.8833,-2.98329 3.6172,-9.64028 L 1159,323 l -4.9109,-7.83934 c -6.3724,-10.17239 -10.7419,-13.95834 -10.7649,-9.32733 -0.012,2.42823 -0.6823,4.83334 -1.347,4.83334 -0.2938,0 -1.0838,-1.1179 -1.7556,-2.48421 -1.3318,-2.70835 -2.7388,-3.34884 -7.5549,-3.43913 -5.1284,-0.0962 -4.9751,-0.55396 -5.2032,15.54026 -0.1388,9.78648 0.037,14.78285 0.5536,15.74839 0.4163,0.77783 1.7827,1.84286 3.0366,2.36674 4.2024,1.75587 2.5972,2.26795 -7.1093,2.26795 -6.9512,0 -9.3203,-0.20554 -9.125,-0.79167 z M 304,287.3074 c -6.71815,-1.39499 -8.18905,-2.94472 -4.86465,-5.12536 1.47505,-0.96757 3.6193,-1.22392 11.81768,-1.41288 12.3704,-0.28511 19.23847,0.29902 21.08368,1.79318 1.88331,1.52501 1.09109,3.22826 -1.93637,4.16312 -3.13828,0.96908 -22.19016,1.39387 -26.10034,0.58194 z m -8.47995,-9.48051 c -1.2179,-1.59216 -6.59879,-20.97037 -5.99161,-21.57756 0.19655,-0.19654 1.04535,0.0108 1.88623,0.46086 1.9944,1.06738 9.91866,7.29752 9.91866,7.79817 0,0.21266 -0.50415,0.94374 -1.12034,1.62462 -1.06291,1.1745 -0.97035,1.39081 1.80537,4.21906 l 2.92572,2.98109 2.17957,-3.4999 c 1.19876,-1.92494 2.18634,-3.67674 2.19463,-3.89289 0.008,-0.21614 -0.75839,-0.74539 -1.70371,-1.17611 l -1.71876,-0.78312 2.489,-4.49055 c 1.36895,-2.46981 3.37516,-5.6251 4.45824,-7.01176 1.64151,-2.10161 2.13521,-2.38346 2.96653,-1.69353 1.21888,1.01159 5.56689,7.37669 7.17238,10.49974 1.12103,2.18066 1.12111,2.32417 0.002,3.14262 -0.64507,0.47169 -1.45559,0.95186 -1.80114,1.06705 -0.60753,0.2025 3.44872,7.79895 4.17855,7.82551 0.19866,0.007 1.67782,-1.32839 3.28702,-2.96805 2.85955,-2.91367 2.89836,-3.01153 1.71346,-4.32083 -1.04645,-1.15631 -1.08573,-1.49232 -0.28701,-2.45543 1.2205,-1.4717 9.29783,-7.57588 10.02476,-7.57588 0.91644,0 0.71262,1.09822 -2.26609,12.21022 L 335,278.77992 l -2,-0.35939 c -8.19983,-1.47346 -10.69902,-1.74595 -16,-1.74453 -5.59485,0.002 -16.17381,0.89983 -19.42372,1.64941 -0.78304,0.1806 -1.70835,-0.0437 -2.05623,-0.49852 z"
         id="path3" />
      <path
         style="fill:#000000"
         d="M 0,360 V 0 h 640 640 V 360 720 H 640 0 Z m 161.53687,207.85146 c 2.19367,-1.02675 5.7276,-3.59502 8.1579,-5.92871 6.75272,-6.4843 12.29449,-18.99477 13.99317,-31.58942 0.88307,-6.54739 4.39007,-21.45647 6.74313,-28.66666 2.89934,-8.88405 6.10685,-15.43536 8.94832,-18.27683 1.16398,-1.16398 1.9044,-2.32787 1.64537,-2.58642 -0.94117,-0.93941 -6.78604,-0.27972 -10.69143,1.20671 -3.17331,1.20779 -5.11127,2.63855 -9.37701,6.92282 -7.46924,7.50171 -9.05721,10.55792 -16.66167,32.06705 -3.8265,10.82322 -10.61406,24.93089 -14.14259,29.39482 -3.17809,4.02058 -8.2184,7.86759 -12.24736,9.34778 -1.59759,0.58693 -6.2047,1.27137 -10.23803,1.52097 l -7.33334,0.45381 4,1.87146 c 9.82843,4.59838 17.5879,6.40681 26.66667,6.21496 5.67974,-0.12003 7.23961,-0.40905 10.53687,-1.95234 z m -42.8702,-24.69451 c 3.41585,-1.63222 15.14278,-13.02174 20.75411,-20.15695 2.01849,-2.56667 7.09957,-9.4461 11.29127,-15.28762 8.93937,-12.45782 16.16721,-20.40181 21.09083,-23.18053 1.94175,-1.09585 3.53045,-2.27125 3.53045,-2.61199 0,-0.87611 -3.02817,-1.91986 -5.57,-1.91986 -3.78504,0 -9.92937,1.91229 -16.09666,5.00975 -6.2213,3.12458 -11.30114,6.70662 -23.08212,16.27633 -8.46656,6.8774 -15.13446,11.28762 -22.58455,14.93765 L 102.33333,519 h -8.666663 c -7.944876,0 -8.97204,-0.14418 -12.333334,-1.73123 -2.016666,-0.95218 -4.981827,-2.83702 -6.589246,-4.18853 -1.607419,-1.35152 -3.040067,-2.33982 -3.183663,-2.19622 -0.331072,0.33107 3.372528,6.89712 7.465179,13.23488 4.31771,6.68629 12.951824,15.1626 17.872982,17.54634 8.037405,3.89319 15.650545,4.4149 21.768085,1.49171 z m 250.49169,-4.50809 c 6.53446,-3.26531 12.17806,-10.59761 13.23256,-17.19205 1.11898,-6.99777 -5.22155,-14.32484 -11.39406,-13.16687 -4.18161,0.78447 -8.99686,6.11475 -8.99686,9.95914 0,2.40984 2.99754,5.62751 5.71796,6.13786 2.67343,0.50154 6.03044,-0.67114 6.97531,-2.43664 0.57341,-1.07144 0.40173,-1.16113 -1.60071,-0.83618 -3.0572,0.49612 -4.90401,-0.66072 -5.78706,-3.625 -1.49147,-5.00664 2.30687,-9.00577 5.99133,-6.30805 5.68276,4.16085 5.19789,14.74727 -1.0121,22.09767 -2.24163,2.65329 -7.3436,6.05459 -9.08192,6.05459 -0.66154,0 -1.20281,0.3 -1.20281,0.66667 0,1.25557 3.1206,0.66655 7.15836,-1.35114 z m 53.4647,0.37324 c 5.4933,-2.78367 8.43681,-8.18722 6.71898,-12.33441 -1.00323,-2.42203 -4.27898,-5.35436 -5.98143,-5.35436 -0.92281,0 -0.5997,-0.60404 1.38449,-2.58823 3.10896,-3.10896 3.40805,-5.71765 0.97929,-8.54126 -1.40106,-1.62883 -2.08384,-1.87051 -5.28445,-1.87051 -4.03561,0 -6.65078,1.40567 -8.42218,4.52698 -1.4745,2.59813 -0.32304,2.94084 1.89677,0.56452 2.32522,-2.48915 5.37603,-2.80093 7.4188,-0.75816 2.74247,2.74247 1.39971,6.20214 -3.60847,9.29737 -3.05782,1.88983 -3.26883,3.52783 -0.34649,2.68971 3.05068,-0.87492 4.93587,0.1606 6.24392,3.42975 1.48837,3.71979 0.92438,6.67132 -1.69611,8.87631 -2.46179,2.07147 -4.7394,2.168 -7.34676,0.3114 -1.57364,-1.12053 -2.15214,-1.2358 -2.93625,-0.58504 -4.14315,3.43851 4.97566,5.3785 10.97989,2.33593 z m -102.50889,-0.12543 c 1.58747,-1.43664 1.54589,-3.061 -0.11688,-4.56579 -1.96516,-1.77844 -4.66396,-0.45428 -4.66396,2.28837 0,3.01173 2.60057,4.25055 4.78084,2.27742 z m -43.57763,-0.48291 c 0.9184,-0.56761 2.3887,-5.71074 1.80067,-6.29877 -0.2294,-0.2294 -1.37411,0.72262 -2.54381,2.1156 -1.92899,2.29721 -2.50219,2.56672 -6.16485,2.89865 -5.78984,0.52472 -6.40154,-0.2409 -6.15345,-7.70176 l 0.19157,-5.76081 3.17648,-0.2036 c 2.93533,-0.18814 3.2643,-0.0493 4.33333,1.82912 0.63627,1.11799 1.38185,2.03461 1.65685,2.03693 0.275,0.002 0.48921,-2.17079 0.47603,-4.82912 l -0.024,-4.83333 -1.50106,1.83333 c -1.28836,1.57353 -1.99351,1.83333 -4.97603,1.83333 h -3.47496 v -5.58503 c 0,-6.74889 0.39832,-7.22892 5.76697,-6.94991 3.54916,0.18444 3.99384,0.3839 5.22291,2.3426 1.65764,2.64168 2.35774,2.75112 2.2966,0.35901 -0.11251,-4.40217 0.009,-4.35648 -11.49435,-4.30556 -13.08331,0.0579 -12.56696,-0.0129 -9.79213,1.34384 l 2.33334,1.14091 V 523 536.32081 l -2.193,1.03548 c -1.20615,0.56952 -2.05603,1.17234 -1.88861,1.3396 0.49639,0.49593 22.12269,0.23009 22.95148,-0.28213 z m 14.74911,-0.0558 C 293.45101,537.23824 294,536.14353 294,532.94548 c 0,-2.51286 -0.80755,-3.49814 -5.5448,-6.76507 -3.1315,-2.15958 -3.85836,-3.84392 -2.32187,-5.38041 1.41745,-1.41745 3.75383,-0.89863 5.28606,1.17382 1.7043,2.30519 2.77407,2.04875 2.14708,-0.51468 -0.57798,-2.363 -1.30613,-2.77009 -4.97656,-2.78226 -4.08983,-0.0136 -6.58991,1.87713 -6.58991,4.98365 0,3.37225 0.51539,4.16778 4.34836,6.71197 4.09741,2.7197 4.73771,3.88812 3.31806,6.05477 -1.70828,2.60717 -4.85811,1.73628 -6.71625,-1.85697 -0.7203,-1.3929 -1.28229,-1.83818 -1.74101,-1.37946 -1.08315,1.08315 0.0694,4.82582 1.68696,5.47828 2.25375,0.90905 6.3217,0.75819 8.38953,-0.31113 z m 19.61259,-0.95993 1.41556,-1.41556 -3.08987,0.42351 c -4.12955,0.56602 -4.66733,-0.47842 -4.41558,-8.57552 L 305,521.66667 l 3.5,-0.20151 c 2.45389,-0.14128 3.5,-0.47957 3.5,-1.13183 0,-0.65226 -1.04611,-0.99055 -3.5,-1.13182 -3.26446,-0.18795 -3.5142,-0.32489 -3.71095,-2.03484 -0.11602,-1.00834 -0.46264,-1.83334 -0.77026,-1.83334 -0.68855,0 -6.26732,4.58847 -6.57435,5.40732 -0.12222,0.32598 0.37697,0.59268 1.1093,0.59268 1.24144,0 1.34668,0.52274 1.55556,7.72696 0.21159,7.29788 0.31615,7.80146 1.88285,9.0688 2.13696,1.72861 6.83181,1.34325 8.90609,-0.73103 z M 355,537.96542 c -0.73333,-0.33605 -2.15833,-0.90832 -3.16667,-1.27171 L 350,536.033 V 522.0165 C 350,514.30743 349.76343,508 349.47429,508 c -0.28913,0 -1.70257,0.6 -3.14096,1.33333 -1.43839,0.73334 -3.22682,1.33793 -3.97429,1.34355 -0.74747,0.006 -1.80063,0.28947 -2.34036,0.6308 -0.82058,0.51894 -0.76598,0.68995 0.33334,1.04403 4.71689,1.51925 4.36649,0.44645 4.16413,12.74921 l -0.18282,11.11479 -2.11882,0.72548 c -4.09105,1.40076 -3.02802,1.72508 5.50771,1.68036 5.77558,-0.0303 8.17206,-0.24632 7.27778,-0.65613 z m 47,-0.82623 -3,-1.47252 -0.18019,-13.83334 C 398.7207,514.225 398.4808,508 398.2867,508 c -0.1941,0 -1.22827,0.45266 -2.29814,1.00592 -1.06988,0.55325 -3.05793,1.2371 -4.41789,1.51966 -2.69415,0.55976 -3.89522,2.14109 -1.62623,2.14109 0.76389,0 1.98889,0.6 2.72223,1.33333 1.201,1.20101 1.33333,2.22222 1.33333,10.28993 0,10.40791 -0.4768,12.23876 -3.33621,12.81064 -4.62391,0.92479 -2.21412,1.5644 5.79687,1.53862 L 405,538.61171 Z M 104.66667,495.46877 c 3.11666,-1.10277 10.01666,-3.94974 15.33333,-6.3266 12.09615,-5.40766 20.51377,-8.55319 30.85148,-11.5287 11.07097,-3.18656 17.462,-4.1205 31.48185,-4.60053 33.39561,-1.14345 49.45108,-3.93257 62.33334,-10.82844 11.61911,-6.21971 18.50274,-11.64976 25.68443,-20.26081 10.96187,-13.14357 19.61382,-30.53732 27.65164,-55.59036 5.1637,-16.09473 15.86318,-37.3564 24.28722,-48.26282 8.78885,-11.37873 26.65957,-26.47322 38.34893,-32.39141 l 3.6389,-1.84233 -1.84274,-1.58505 c -1.77149,-1.52377 -2.24842,-1.58505 -12.33567,-1.58505 -9.30333,0 -11.24535,-0.20343 -17.1295,-1.79436 -5.73193,-1.54976 -7.90876,-1.7932 -15.96988,-1.78592 -8.40906,0.008 -9.85424,0.18792 -14.59343,1.821 -13.07009,4.50383 -19.48663,11.34146 -28.7813,30.67011 -4.64435,9.6581 -8.81133,19.73403 -13.4086,32.4225 -7.71517,21.29391 -19.81121,44.25723 -30.78024,58.43375 -15.29149,19.76289 -41.58067,37.17826 -66.16495,43.83123 -19.61637,5.30856 -40.53987,5.1024 -57.17529,-0.56334 -18.890205,-6.43368 -35.358894,-15.26583 -46.75663,-25.07556 -2.530203,-2.17768 -4.891091,-3.95941 -5.246418,-3.95941 -1.834983,0 -1.698494,17.6433 0.213807,27.638 2.786921,14.56593 12.068229,28.06771 23.153504,33.68206 l 4.206214,2.13032 8.666666,-0.32162 c 7.429963,-0.27572 9.475281,-0.60773 14.333337,-2.32666 z m 268.77418,-39.74779 c 12.37024,-3.60097 26.47307,-10.87108 38.08331,-19.63223 8.82807,-6.66171 15.55041,-13.09318 23.08944,-22.09041 6.38086,-7.61504 18.49811,-25.10885 17.84456,-25.7624 -0.17599,-0.176 -2.72878,1.62473 -5.67286,4.00161 -10.06975,8.12977 -15.9522,11.73091 -33.20576,20.32809 -19.85332,9.8926 -25.89528,11.64558 -40.24621,11.6768 -9.15648,0.0199 -11.74781,-0.41612 -26,-4.37492 -8.55636,-2.37669 -10.73868,-2.72344 -19,-3.01885 -8.81667,-0.31526 -9.62856,-0.235 -14.66666,1.45003 -9.63097,3.22115 -21.1136,10.24515 -29.33334,17.94339 L 281,439.36394 l 3.33333,-0.5153 c 1.83334,-0.28342 6.33334,-0.47307 10,-0.42145 8.74434,0.12312 16.00361,2.44722 27.48601,8.79983 12.97905,7.18062 18.36013,9.16006 28.18066,10.36627 5.9564,0.7316 17.72487,-0.20839 23.44085,-1.87231 z M 215.87644,412.73935 c -0.22468,-6.00474 -0.55036,-7.70025 -2.15689,-11.22889 -4.22405,-9.27787 -12.3714,-13.75726 -29.38622,-16.1565 -10.79992,-1.52288 -22.83423,-4.2087 -29,-6.47222 -9.86472,-3.62145 -32.37137,-15.01588 -37.83333,-19.15386 -2.65833,-2.01396 -4.83333,-3.39269 -4.83333,-3.06386 0,1.56112 8.65766,15.45903 14.75082,23.67909 4.61195,6.2218 14.61941,16.52662 19.99871,20.59293 6.19739,4.68472 16.05379,9.31215 24.5838,11.54172 2.16844,0.56678 9.25096,1.16344 17.33333,1.46022 15.89599,0.5837 18.10464,1.20728 22.37636,6.31763 l 2.5811,3.08782 0.92514,-1.7657 c 0.67639,-1.29095 0.85398,-3.66732 0.66051,-8.83838 z m 484.78432,3.73408 c 3.02081,-1.52836 2.46333,-2.90764 -1.38134,-3.41766 -2.99727,-0.3976 -3.95926,-0.94315 -7.32637,-4.15483 -2.13183,-2.03342 -5.44902,-5.9725 -7.37153,-8.75351 -3.19227,-4.61778 -3.39175,-5.11816 -2.29961,-5.76858 4.77023,-2.84086 6.52314,-5.70396 6.48527,-10.59266 -0.0416,-5.37578 -3.20157,-8.47783 -9.93722,-9.75522 -4.66891,-0.88544 -21.49663,-0.10297 -21.49663,0.99957 0,0.4537 0.82333,1.03156 1.82961,1.28412 3.55132,0.89132 3.50373,0.63588 3.50373,18.80446 v 16.95585 l -3,1.32705 c -1.65,0.72987 -3,1.613 -3,1.96251 0,0.37476 4.12539,0.63547 10.05555,0.63547 7.43533,0 9.98717,-0.20518 9.79309,-0.7874 -0.14436,-0.43308 -1.25291,-1.12089 -2.46345,-1.52847 C 670.50579,412.49018 670,411.22381 670,403.53925 c 0,-6.37294 0.0947,-6.87258 1.30196,-6.87258 2.72382,0 4.78944,1.70139 7.66297,6.31178 4.66508,7.48483 8.34859,11.74274 11.33019,13.09701 3.13299,1.42304 7.97235,1.60884 10.36564,0.39797 z m -30.21632,-22.91787 c -0.56462,-0.56463 -0.58219,-11.36679 -0.023,-14.16257 0.56699,-2.83492 2.21382,-3.63236 5.61179,-2.71739 3.87927,1.04458 5.4514,3.78345 5.12071,8.92102 -0.22691,3.52534 -0.50423,4.16022 -2.69364,6.16666 -1.88502,1.72749 -3.02473,2.23672 -5.00603,2.23672 -1.41094,0 -2.76534,-0.2 -3.00979,-0.44444 z m 550.05296,3.97281 c 0.1002,-11.67198 0.4247,-19.38378 0.8329,-19.79196 0.3678,-0.36781 1.6214,-0.98397 2.7858,-1.36925 1.1644,-0.38527 2.2396,-1.07549 2.3894,-1.53383 0.2077,-0.63571 -1.6381,-0.83333 -7.7833,-0.83333 -6.5158,0 -8.0555,0.18102 -8.0555,0.94703 0,0.52087 0.8963,1.1439 1.9918,1.38452 1.0956,0.24062 2.5956,1.20491 3.3334,2.14287 1.2109,1.53939 1.3414,2.69435 1.3414,11.86549 0,10.2841 -0.4111,14.53681 -1.3714,14.18613 -0.2903,-0.10599 -6.128,-6.88769 -12.9727,-15.07044 -6.8447,-8.18275 -12.7923,-15.00018 -13.217,-15.14984 -0.4247,-0.14967 -3.4413,-0.35469 -6.7034,-0.45561 -7.1366,-0.22077 -7.9111,0.5787 -3.0981,3.19823 4.8561,2.64305 5.1054,3.83964 4.162,19.98053 -0.4173,7.14059 -1.0768,13.57713 -1.4655,14.30342 -0.3887,0.7263 -1.5978,1.78135 -2.687,2.34456 -3.5439,1.83266 -2.2731,2.32311 6.0198,2.32311 4.4102,0 8,-0.27451 8,-0.61176 0,-0.33647 -1.1226,-1.16147 -2.4947,-1.83333 -1.3721,-0.67187 -2.8677,-1.97158 -3.3235,-2.88824 -0.8893,-1.78832 -1.0681,-16.09038 -0.2825,-22.59287 l 0.434,-3.59287 13.3334,15.4198 c 12.3063,14.23204 16.0276,17.7642 17.9413,17.02937 0.494,-0.18969 0.7777,-6.3779 0.8894,-19.40173 z m -355.33372,18.11287 c 3.3059,-1.38129 4.79263,-2.8027 6.24917,-5.97457 3.04334,-6.62748 0.98869,-12.01156 -6.55303,-17.17175 -8.2479,-5.64337 -10.19315,-7.60719 -10.19315,-10.29044 0,-1.68261 0.55003,-2.85708 2.03218,-4.33923 1.77732,-1.77732 2.36906,-1.98699 4.71841,-1.67188 3.1249,0.41914 4.88965,1.82375 6.66723,5.30663 1.58615,3.10779 3.91755,3.50512 3.91179,0.66667 -0.002,-1.00834 -0.32276,-2.9823 -0.7127,-4.38659 -0.8919,-3.21194 -3.53153,-4.45272 -9.42883,-4.43211 C 853.20412,373.37822 848,377.98463 848,385.61148 c 0,4.19204 2.0966,6.77455 9.50671,11.70999 4.5616,3.03822 6.8044,4.98763 7.55282,6.56482 1.44919,3.05393 0.76523,6.24835 -1.80002,8.40686 -4.11679,3.46405 -9.62527,1.36057 -12.59284,-4.80875 -2.16228,-4.49517 -4.03681,-4.80642 -3.92113,-0.65107 0.15461,5.55359 0.70097,6.72232 3.89572,8.33334 3.6118,1.82132 10.74156,2.05431 14.52242,0.47457 z m 30.66667,0 c 3.3059,-1.38129 4.79263,-2.8027 6.24916,-5.97457 3.04335,-6.62748 0.98869,-12.01156 -6.55302,-17.17175 -8.2479,-5.64337 -10.19316,-7.60719 -10.19316,-10.29044 0,-1.68261 0.55004,-2.85708 2.03218,-4.33923 1.77733,-1.77732 2.36907,-1.98699 4.71841,-1.67188 3.1249,0.41914 4.88965,1.82375 6.66724,5.30663 1.58614,3.10779 3.91755,3.50512 3.91179,0.66667 -0.002,-1.00834 -0.32276,-2.9823 -0.71271,-4.38659 -0.89189,-3.21194 -3.53153,-4.45272 -9.42883,-4.43211 -8.65063,0.0303 -13.85474,4.63666 -13.85474,12.26351 0,4.19204 2.0966,6.77455 9.50671,11.70999 4.5616,3.03822 6.8044,4.98763 7.55282,6.56482 1.44919,3.05393 0.76522,6.24835 -1.80002,8.40686 -4.1168,3.46405 -9.62527,1.36057 -12.59285,-4.80875 -2.16227,-4.49517 -4.0368,-4.80642 -3.92112,-0.65107 0.1546,5.55359 0.70097,6.72232 3.89572,8.33334 3.6118,1.82132 10.74156,2.05431 14.52242,0.47457 z m 43.63153,-0.85237 c 4.1341,-2.03176 8.35728,-6.21056 9.97695,-9.8721 5.4935,-12.41896 0.46934,-25.83874 -11.34077,-30.29182 -5.12776,-1.93346 -13.63916,-1.62176 -18.2121,0.66695 -4.03482,2.01938 -7.60879,5.52772 -9.51101,9.33634 -2.03808,4.08065 -2.46983,6.12757 -2.45245,11.62699 0.0275,8.69012 5.42353,16.29731 13.62353,19.20601 4.94394,1.75371 13.64375,1.42721 17.91585,-0.67237 z m -11.94518,-1.4379 c -7.42081,-1.75712 -12.00019,-10.65827 -11.39689,-22.15266 0.35091,-6.68564 1.97134,-10.08217 6.10828,-12.80333 2.46077,-1.61863 3.27463,-1.79694 7.2506,-1.58855 5.06846,0.26566 7.04331,1.36816 10.04202,5.60615 3.36962,4.76219 4.89762,15.32124 3.13527,21.66584 -1.91154,6.88166 -8.41479,10.8648 -15.13928,9.27255 z m 64.89141,2.02898 c 2.33329,-0.87679 3.45409,-2.85514 4.04023,-7.13152 0.32522,-2.3727 0.20508,-2.9151 -0.64566,-2.9151 -0.57487,0 -1.73256,0.975 -2.57264,2.16667 -8.07583,11.4557 -22.98661,7.21856 -26.94667,-7.65734 -2.02578,-7.60977 -0.58162,-13.53235 4.59327,-18.83733 4.59268,-4.70814 9.18171,-5.99998 15.28893,-4.30391 3.35136,0.93072 5.63996,3.07211 6.73155,6.29858 0.49621,1.46667 1.39736,2.76366 2.00254,2.88222 0.93843,0.18383 1.10034,-0.47131 1.10034,-4.45238 0,-5.6399 -0.49651,-6.26192 -5.9165,-7.41212 -13.13846,-2.78817 -25.86541,2.29222 -30.78717,12.28972 -1.94278,3.94636 -2.08527,4.69582 -1.86617,9.8159 0.34481,8.05791 3.29613,13.20233 9.76053,17.01356 5.00446,2.95049 7.86269,3.54204 15.80931,3.27195 4.03333,-0.13709 8.26698,-0.60009 9.40811,-1.0289 z m 169.05379,-0.59108 c 4.1341,-2.03176 8.3573,-6.21056 9.9769,-9.8721 5.4935,-12.41896 0.4694,-25.83874 -11.3407,-30.29182 -5.1278,-1.93346 -13.6392,-1.62176 -18.2121,0.66695 -4.0349,2.01938 -7.6088,5.52772 -9.511,9.33634 -2.0381,4.08065 -2.4699,6.12757 -2.4525,11.62699 0.028,8.69012 5.4235,16.29731 13.6235,19.20601 4.944,1.75371 13.6438,1.42721 17.9159,-0.67237 z m -11.9452,-1.4379 c -7.4208,-1.75712 -12.0002,-10.65827 -11.3969,-22.15266 0.3509,-6.68564 1.9714,-10.08217 6.1083,-12.80333 2.4608,-1.61863 3.2746,-1.79694 7.2506,-1.58855 5.0684,0.26566 7.0433,1.36816 10.042,5.60615 3.3696,4.76219 4.8976,15.32124 3.1353,21.66584 -1.9116,6.88166 -8.4148,10.8648 -15.1393,9.27255 z M 556.58316,411.5 c 0.48798,-2.475 0.93139,-4.95 0.98537,-5.5 0.18862,-1.92197 -1.63157,-0.97832 -3.09391,1.60399 -2.56464,4.52883 -4.37163,5.39601 -11.24391,5.39601 -5.17472,0 -6.13567,-0.1789 -6.95112,-1.29409 -0.75418,-1.0314 -0.94626,-4.49948 -0.94626,-17.08503 0,-17.33914 -0.17683,-16.59852 4.32074,-18.09607 1.41747,-0.47198 2.70019,-1.23314 2.85047,-1.69148 C 542.71501,374.19142 540.46795,374 532.72222,374 c -8.14567,0 -10.05555,0.17621 -10.05555,0.92773 0,0.51025 0.82332,1.13437 1.8296,1.38693 3.54572,0.88992 3.50446,0.67416 3.49352,18.26697 -0.006,9.0301 -0.23061,16.75965 -0.5,17.17678 -0.26938,0.41712 -1.61479,1.22681 -2.98979,1.79931 -5.04872,2.1021 -3.05024,2.44228 14.34796,2.44228 h 16.84797 z M 580,415.32794 c 0,-0.36964 -1.20875,-1.15572 -2.68612,-1.74684 -1.47736,-0.59112 -2.97736,-1.61897 -3.33333,-2.28411 -0.3644,-0.68089 -0.64722,-7.87298 -0.64722,-16.45908 0,-16.69621 0.10534,-17.19325 3.91546,-18.47611 4.33188,-1.45853 2.42235,-2.02838 -7.41546,-2.21296 -10.66181,-0.20003 -12.01266,0.29771 -6.83333,2.51783 l 3,1.28595 v 16.64274 c 0,18.21854 0.006,18.19152 -3.99314,19.0698 C 560.90309,413.90759 560,414.5321 560,415.05297 560,415.82914 561.80415,416 570,416 c 6.27577,0 10,-0.25029 10,-0.67206 z m 30.35502,-1.36746 c 4.58989,-2.36475 6.31165,-5.1178 6.31165,-10.09218 0,-5.26598 -1.25395,-7.46778 -5.46958,-9.604 -3.06378,-1.55254 -3.29846,-1.81738 -2.15133,-2.42785 4.24483,-2.25898 6.19223,-6.57223 4.98743,-11.04654 -1.61867,-6.01126 -6.82783,-7.65189 -22.22042,-6.99834 -10.04689,0.42658 -11.82475,1.06645 -7.20632,2.59364 1.19513,0.39519 2.44301,1.14519 2.77305,1.66666 0.33005,0.52147 0.60468,8.2017 0.61029,17.06718 0.0112,17.64699 0.006,17.66994 -3.98293,18.54611 -1.12969,0.24812 -2.00686,0.87238 -2.00686,1.42822 0,0.84444 1.81334,0.95745 12.52168,0.78036 11.91947,-0.19711 12.68096,-0.28913 15.83334,-1.91326 z m -13.97407,-2.34143 c -1.32786,-1.32787 -1.53538,-14.86462 -0.24762,-16.15238 1.10768,-1.10768 5.54206,-1.0021 7.84091,0.18668 4.625,2.39168 6.17183,8.2455 3.38608,12.81428 -2.31299,3.79343 -8.54778,5.58301 -10.97937,3.15142 z m -0.21428,-20.36904 c -0.55174,-0.56278 -0.83334,-3.04977 -0.83334,-7.35989 0,-5.79047 0.14487,-6.58741 1.31093,-7.21146 1.95023,-1.04373 6.43679,-0.0825 8.29692,1.77767 3.33819,3.33819 2.57072,10.33703 -1.32833,12.11355 -2.79598,1.27394 -6.52968,1.61497 -7.44618,0.68013 z m 56.38049,23.58332 c 1.36377,-2.67824 2.20533,-7.68162 1.41828,-8.43218 -0.5668,-0.54052 -0.97204,-0.39466 -1.53449,0.55231 -0.42035,0.70773 -1.68034,2.31857 -2.79997,3.57964 -1.88117,2.11881 -2.39852,2.31881 -6.81558,2.63485 -3.74979,0.2683 -5.14289,0.10415 -6.46431,-0.76168 -1.6395,-1.07424 -1.68442,-1.30773 -1.68442,-8.75497 V 396 h 4.65772 4.65772 l 0.99946,2.39205 c 1.60956,3.85222 2.51796,2.52881 2.5745,-3.75068 0.0418,-4.63788 -0.13609,-5.67062 -1.00536,-5.83802 -0.66802,-0.12865 -1.21505,0.42996 -1.48869,1.52021 -0.48493,1.93214 -2.65142,3.00977 -6.05089,3.00977 -4.29128,0 -4.34446,-0.0972 -4.34446,-7.93799 0,-4.65563 0.27753,-7.4062 0.8,-7.92867 0.47151,-0.47151 2.7374,-0.8 5.51833,-0.8 5.44641,0 7.31099,0.95002 8.78406,4.47556 0.73411,1.75699 1.16443,2.13292 1.81933,1.5894 0.98022,-0.81351 0.30971,-7.96954 -0.81191,-8.66515 -1.13991,-0.70695 -29.44315,-0.073 -29.44315,0.65946 0,0.37149 1.125,1.14384 2.5,1.71634 1.375,0.5725 2.72041,1.38219 2.98979,1.79931 0.65393,1.01256 0.63199,32.53466 -0.0234,33.56589 -0.28223,0.44411 -1.62764,1.27313 -2.98979,1.84228 -1.36215,0.56914 -2.47664,1.33077 -2.47664,1.69252 0,0.41342 5.68658,0.65772 15.30988,0.65772 13.91008,0 15.36419,-0.10667 15.90395,-1.16667 z m 68.78617,0.51355 c 0,-0.35921 -1.2,-1.26531 -2.66666,-2.01355 -2.30669,-1.17678 -2.65945,-1.65108 -2.61322,-3.51355 0.0294,-1.18421 0.55439,-3.65311 1.16666,-5.48645 L 718.33333,401 l 6.80801,-0.18971 6.80802,-0.18971 0.96713,3.52304 c 1.76198,6.4185 1.79936,6.94112 0.57273,8.00661 -0.63574,0.55221 -1.98089,1.20003 -2.98922,1.4396 -1.00833,0.23956 -1.83333,0.87986 -1.83333,1.42287 0,0.82949 1.65167,0.9873 10.33333,0.9873 6.40897,0 10.33333,-0.25189 10.33333,-0.66325 0,-0.36479 -1.32752,-1.28726 -2.95005,-2.04994 -3.77431,-1.77414 -4.15404,-2.59528 -11.07703,-23.95348 -3.03068,-9.35 -5.61258,-17.12316 -5.73754,-17.27369 -0.12496,-0.15053 -0.83111,0.27284 -1.56921,0.94082 -0.73811,0.66797 -1.96986,1.54113 -2.73722,1.94035 -0.88766,0.46181 -1.97779,2.42349 -2.99668,5.39252 -2.92292,8.51737 -10.55149,27.22704 -11.94495,29.29593 -0.75474,1.12057 -2.63849,2.73645 -4.1861,3.59084 -1.54762,0.85439 -2.64331,1.82939 -2.43486,2.16667 0.51828,0.83858 17.63364,0.79987 17.63364,-0.0399 z M 720,396.76084 c 0,-0.66282 5.22542,-14.87515 5.61082,-15.26055 0.20516,-0.20516 2.69968,7.4056 4.80708,14.66638 0.30263,1.04268 -0.23294,1.16666 -5.03964,1.16666 -2.95804,0 -5.37826,-0.25762 -5.37826,-0.57249 z M 784.58316,411.5 c 0.48798,-2.475 0.93139,-4.95 0.98537,-5.5 0.18862,-1.92197 -1.63157,-0.97832 -3.09391,1.60399 -2.56464,4.52883 -4.37163,5.39601 -11.24391,5.39601 -5.17472,0 -6.13567,-0.1789 -6.95112,-1.29409 -0.75418,-1.0314 -0.94626,-4.49948 -0.94626,-17.08503 0,-17.33914 -0.17683,-16.59852 4.32074,-18.09607 1.41747,-0.47198 2.70019,-1.23314 2.85047,-1.69148 C 770.71501,374.19142 768.46795,374 760.72222,374 c -8.14567,0 -10.05555,0.17621 -10.05555,0.92773 0,0.51025 0.82332,1.13437 1.8296,1.38693 3.54572,0.88992 3.50446,0.67416 3.49352,18.26697 -0.006,9.0301 -0.23061,16.75965 -0.5,17.17678 -0.26938,0.41712 -1.61479,1.22681 -2.98979,1.79931 -5.04872,2.1021 -3.05024,2.44228 14.34796,2.44228 h 16.84797 z m 32.75017,3.84688 c 0,-0.35921 -1.2,-1.26531 -2.66666,-2.01355 -2.30669,-1.17678 -2.65945,-1.65108 -2.61322,-3.51355 0.0294,-1.18421 0.55439,-3.65311 1.16666,-5.48645 L 814.33333,401 l 6.80801,-0.18971 6.80802,-0.18971 0.96713,3.52304 c 1.76198,6.4185 1.79936,6.94112 0.57273,8.00661 -0.63574,0.55221 -1.98089,1.20003 -2.98922,1.4396 -1.00833,0.23956 -1.83333,0.87986 -1.83333,1.42287 0,0.82949 1.65167,0.9873 10.33333,0.9873 6.40897,0 10.33333,-0.25189 10.33333,-0.66325 0,-0.36479 -1.32752,-1.28726 -2.95005,-2.04994 -3.77431,-1.77414 -4.15404,-2.59528 -11.07703,-23.95348 -3.03068,-9.35 -5.61258,-17.12316 -5.73754,-17.27369 -0.12496,-0.15053 -0.83111,0.27284 -1.56921,0.94082 -0.73811,0.66797 -1.96986,1.54113 -2.73722,1.94035 -0.88766,0.46181 -1.97779,2.42349 -2.99668,5.39252 -2.92292,8.51737 -10.55149,27.22704 -11.94495,29.29593 -0.75474,1.12057 -2.63849,2.73645 -4.1861,3.59084 -1.54762,0.85439 -2.64331,1.82939 -2.43486,2.16667 0.51828,0.83858 17.63364,0.79987 17.63364,-0.0399 z M 816,396.76084 c 0,-0.66282 5.22542,-14.87515 5.61082,-15.26055 0.20516,-0.20516 2.69968,7.4056 4.80708,14.66638 0.30263,1.04268 -0.23294,1.16666 -5.03964,1.16666 -2.95804,0 -5.37826,-0.25762 -5.37826,-0.57249 z m 205.3333,18.5671 c 0,-0.36964 -1.2087,-1.15572 -2.6861,-1.74684 -1.4773,-0.59112 -2.9773,-1.61897 -3.3333,-2.28411 -0.3644,-0.68089 -0.6472,-7.87298 -0.6472,-16.45908 0,-16.69621 0.1053,-17.19325 3.9154,-18.47611 4.3319,-1.45853 2.4224,-2.02838 -7.4154,-2.21296 -10.6618,-0.20003 -12.01269,0.29771 -6.8334,2.51783 l 3,1.28595 v 16.64274 c 0,18.21854 0.01,18.19152 -3.9931,19.0698 -1.1038,0.24243 -2.0069,0.86694 -2.0069,1.38781 0,0.77617 1.8042,0.94703 10,0.94703 6.2758,0 10,-0.25029 10,-0.67206 z m 18.6667,0.0189 c 0,-0.35921 -1.2,-1.26531 -2.6667,-2.01355 -2.3067,-1.17678 -2.6594,-1.65108 -2.6132,-3.51355 0.029,-1.18421 0.5544,-3.65311 1.1667,-5.48645 L 1037,401 l 6.808,-0.18971 6.808,-0.18971 0.9672,3.52304 c 1.7619,6.4185 1.7993,6.94112 0.5727,8.00661 -0.6358,0.55221 -1.9809,1.20003 -2.9892,1.4396 -1.0084,0.23956 -1.8334,0.87986 -1.8334,1.42287 0,0.82949 1.6517,0.9873 10.3334,0.9873 6.4089,0 10.3333,-0.25189 10.3333,-0.66325 0,-0.36479 -1.3275,-1.28726 -2.9501,-2.04994 -3.7743,-1.77414 -4.154,-2.59528 -11.077,-23.95348 -3.0307,-9.35 -5.6126,-17.12316 -5.7375,-17.27369 -0.125,-0.15053 -0.8311,0.27284 -1.5692,0.94082 -0.7381,0.66797 -1.9699,1.54113 -2.7373,1.94035 -0.8876,0.46181 -1.9777,2.42349 -2.9966,5.39252 -2.923,8.51737 -10.5515,27.22704 -11.945,29.29593 -0.7547,1.12057 -2.6385,2.73645 -4.1861,3.59084 -1.5476,0.85439 -2.6433,1.82939 -2.4348,2.16667 0.5182,0.83858 17.6336,0.79987 17.6336,-0.0399 z m -1.3333,-18.58604 c 0,-0.66282 5.2254,-14.87515 5.6108,-15.26055 0.2051,-0.20516 2.6997,7.4056 4.8071,14.66638 0.3026,1.04268 -0.233,1.16666 -5.0397,1.16666 -2.958,0 -5.3782,-0.25762 -5.3782,-0.57249 z m 54.6666,18.34469 c 0,-0.49197 -1.1641,-1.24327 -2.5869,-1.66956 -1.8407,-0.55146 -2.8158,-1.32741 -3.38,-2.6895 -1.1502,-2.77684 -0.7063,-31.67815 0.505,-32.88111 1.069,-1.06159 9.2973,-1.02383 11.3073,0.0519 0.7588,0.40608 1.5771,1.63738 1.8184,2.73623 0.5097,2.32056 1.586,3.22712 2.3547,1.98333 0.7107,-1.14989 1.5764,-9.93088 1.0326,-10.47458 -0.234,-0.23401 -1.3912,0.15876 -2.5716,0.87281 -1.9556,1.18303 -3.4582,1.29829 -16.9248,1.29829 -14.4082,0 -14.8187,-0.0376 -16.3763,-1.5 -1.8527,-1.73951 -3.1784,-1.93928 -3.1784,-0.47897 0,0.56157 -0.6175,2.85407 -1.3722,5.09444 -1.7656,5.24123 -0.9307,6.35044 2.2043,2.92838 2.5646,-2.79943 5.9838,-3.85706 10.1632,-3.14375 3.4377,0.58671 3.4926,0.85938 3.5925,17.83375 0.092,15.55005 -0.2455,17.17186 -3.8078,18.3196 -5.9911,1.93031 -4.094,2.61322 7.2594,2.61322 7.8872,0 9.9606,-0.1862 9.9606,-0.89447 z M 1126,415.32794 c 0,-0.36964 -1.2088,-1.15572 -2.6861,-1.74684 -1.4774,-0.59112 -2.9774,-1.61897 -3.3333,-2.28411 -0.3645,-0.68089 -0.6473,-7.87298 -0.6473,-16.45908 0,-16.69621 0.1054,-17.19325 3.9155,-18.47611 4.3319,-1.45853 2.4223,-2.02838 -7.4155,-2.21296 -10.6618,-0.20003 -12.0126,0.29771 -6.8333,2.51783 l 3,1.28595 v 16.64274 c 0,18.21854 0.01,18.19152 -3.9931,19.0698 -1.1038,0.24243 -2.0069,0.86694 -2.0069,1.38781 0,0.77617 1.8041,0.94703 10,0.94703 6.2758,0 10,-0.25029 10,-0.67206 z M 225.59576,404.33333 c 2.50231,-8.84847 3.24456,-14.33422 3.24732,-24 0.005,-17.99557 -4.25764,-27.23724 -17.42111,-37.7689 -8.05018,-6.44068 -13.29784,-9.4075 -35.7553,-20.21464 -20.29832,-9.7681 -37.26449,-19.32158 -46.33334,-26.08982 C 115.79854,286.15871 102.67302,272.01724 95.726038,260.05139 93.157106,255.62653 88,244.07947 88,242.75235 88,242.33856 87.725596,242 87.390213,242 c -0.980002,0 -1.611508,9.69201 -1.150309,17.65434 1.109096,19.14792 6.132124,36.35458 14.113236,48.34566 3.46958,5.2128 13.01163,14.94716 20.35345,20.76364 8.63676,6.84237 26.94855,16.15204 49.62674,25.23008 39.50126,15.8123 52.33334,28.58828 52.33334,52.10455 0,3.37955 0.23767,5.25743 0.61615,4.8684 0.33889,-0.34834 1.37971,-3.33334 2.31294,-6.63334 z m 77.93271,3.12724 c 6.79468,-4.9703 16.07392,-10.04082 22.28701,-12.17843 7.14231,-2.45732 12.86692,-2.81471 26.88374,-1.67838 7.1321,0.57819 15.26426,1.22204 18.07147,1.43077 18.94143,1.40838 46.01551,-7.37883 63.84392,-20.7213 21.84792,-16.3506 36.49738,-39.44827 40.3672,-63.64656 1.14805,-7.17886 1.25712,-9.33334 0.47253,-9.33334 -0.30012,0 -2.38124,2.33039 -4.62472,5.17864 -4.68403,5.94667 -18.5032,19.65097 -26.87202,26.64862 -10.94865,9.15481 -21.42383,14.62628 -34.9576,18.25929 -4.78201,1.28369 -7.77985,1.47909 -29,1.89025 -23.28453,0.45115 -23.75278,0.48733 -29,2.24061 -17.02761,5.68953 -33.87298,22.29604 -48.21202,47.52838 -4.62179,8.13293 -4.59607,8.28514 0.74049,4.38145 z m -59.82062,-27.88243 c 10.0405,-21.03031 13.84989,-44.05595 10.30988,-62.31755 -2.34686,-12.10659 -7.68693,-20.93151 -20.34436,-33.62075 -8.53609,-8.55754 -17.66584,-15.58982 -29.0067,-22.34269 -46.98034,-27.97428 -61.83863,-40.64597 -79.74872,-68.01259 -9.3355,-14.26464 -16.65171,-31.12307 -18.56763,-42.78456 -0.22591,-1.375 -0.68509,-2.5 -1.02041,-2.5 -0.86264,0 -3.19698,7.90289 -4.42855,14.99285 -1.509748,8.69129 -0.9579,27.75055 1.04256,36.00715 5.8564,24.17143 15.69683,41.92308 32.72275,59.03021 10.4165,10.46619 30.48478,24.39502 52.46044,36.41134 5.79676,3.16967 13.07289,7.42436 16.16918,9.45486 6.32272,4.14636 18.52353,15.58733 23.16517,21.72248 3.97785,5.25779 7.85142,13.37552 9.525,19.96128 1.64656,6.47944 2.98807,27.18668 2.40262,37.0865 -0.38771,6.55616 -0.34455,6.91546 0.68069,5.66666 0.60206,-0.73333 2.68919,-4.67317 4.63808,-8.75519 z M 771.14759,340.47145 C 772.51816,339.10089 771.67774,338 769.26088,338 c -4.01191,0 -7.26795,-2.76582 -13.44174,-11.41799 -3.48299,-4.8812 -3.72112,-5.64501 -1.93652,-6.21142 0.66878,-0.21226 2.06854,-1.27584 3.1106,-2.36351 2.40536,-2.51066 3.08678,-7.96272 1.40234,-11.22008 -2.01938,-3.90504 -4.05911,-4.45367 -16.55829,-4.45367 -6.1435,0 -11.23944,0.27302 -11.33333,0.60719 -0.0938,0.33395 0.87939,0.96072 2.16273,1.39281 L 735,305.11896 V 321.05948 337 l -2.5,1.22157 c -1.375,0.67187 -2.5,1.49687 -2.5,1.83334 0,0.34102 3.98294,0.61176 9,0.61176 9.35979,0 10.88907,-0.52614 6.66243,-2.29214 -1.38239,-0.5776 -2.60826,-1.68865 -3,-2.71902 -1.02186,-2.68769 -0.85359,-12.29067 0.2226,-12.70364 2.11719,-0.81244 4.38673,1.16153 8.61271,7.49104 5.06785,7.59042 7.26186,9.84919 10.50226,10.81226 3.04937,0.9063 7.87064,0.49324 9.14759,-0.78372 z M 742.8,319.86667 c -0.86984,-0.86984 -1.05275,-6.5032 -0.37235,-11.46731 0.52223,-3.81007 1.92823,-4.82535 5.19105,-3.74852 3.60014,1.18815 4.66625,2.87955 4.69202,7.44396 0.0214,3.78504 -0.11403,4.13009 -2.4676,6.28833 -2.59588,2.38044 -5.5285,2.99816 -7.04312,1.48354 z m 312.3476,20.60478 c 1.3706,-1.37056 0.5301,-2.47145 -1.8867,-2.47145 -4.0119,0 -7.268,-2.76582 -13.4418,-11.41799 -3.483,-4.8812 -3.7211,-5.64501 -1.9365,-6.21142 0.6688,-0.21226 2.0686,-1.27584 3.1106,-2.36351 2.4054,-2.51066 3.0868,-7.96272 1.4024,-11.22008 -2.0194,-3.90504 -4.0591,-4.45367 -16.5583,-4.45367 -6.1435,0 -11.2395,0.27302 -11.3334,0.60719 -0.094,0.33395 0.8794,0.96072 2.1628,1.39281 L 1019,305.11896 V 321.05948 337 l -2.5,1.22157 c -1.375,0.67187 -2.5,1.49687 -2.5,1.83334 0,0.34102 3.9829,0.61176 9,0.61176 9.3598,0 10.8891,-0.52614 6.6624,-2.29214 -1.3824,-0.5776 -2.6082,-1.68865 -3,-2.71902 -1.0218,-2.68769 -0.8536,-12.29067 0.2226,-12.70364 2.1172,-0.81244 4.3868,1.16153 8.6127,7.49104 5.0679,7.59042 7.2619,9.84919 10.5023,10.81226 3.0494,0.9063 7.8706,0.49324 9.1476,-0.78372 z M 1026.8,319.86667 c -0.8698,-0.86984 -1.0528,-6.5032 -0.3723,-11.46731 0.5222,-3.81007 1.9282,-4.82535 5.191,-3.74852 3.6001,1.18815 4.6663,2.87955 4.692,7.44396 0.021,3.78504 -0.114,4.13009 -2.4676,6.28833 -2.5959,2.38044 -5.5285,2.99816 -7.0431,1.48354 z m -428.58929,20.40531 c 4.28902,-1.46141 9.25191,-6.09323 11.16377,-10.41903 1.92065,-4.34568 2.16555,-12.76656 0.48313,-16.61266 -1.55577,-3.55656 -5.63086,-7.76091 -9.48197,-9.78273 -4.64094,-2.43646 -13.02165,-2.55196 -18.04231,-0.24864 -5.85088,2.68421 -9.44558,7.26071 -11.00428,14.0098 -2.18866,9.47678 2.84258,19.36889 11.55507,22.7189 4.26817,1.64113 11.05678,1.78923 15.32659,0.33436 z m -11.43186,-3.0358 c -5.17368,-2.5609 -8.19269,-8.98934 -8.25125,-17.56951 -0.0679,-9.95645 3.77968,-15.04258 11.42443,-15.1018 8.21918,-0.0637 13.4694,7.09308 13.53951,18.45616 0.0503,8.14784 -2.61557,13.05269 -8.09102,14.88662 -3.29028,1.10203 -5.36522,0.94044 -8.62167,-0.67147 z m 126.76519,3.0358 c 4.28902,-1.46141 9.25192,-6.09323 11.16378,-10.41903 1.92064,-4.34568 2.16554,-12.76656 0.48312,-16.61266 -1.55576,-3.55656 -5.63085,-7.76091 -9.48197,-9.78273 -4.64094,-2.43646 -13.02165,-2.55196 -18.0423,-0.24864 -5.85088,2.68421 -9.44559,7.26071 -11.00429,14.0098 -2.18865,9.47678 2.84258,19.36889 11.55507,22.7189 4.26817,1.64113 11.05678,1.78923 15.32659,0.33436 z m -11.43186,-3.0358 c -5.17367,-2.5609 -8.19269,-8.98934 -8.25125,-17.56951 -0.068,-9.95645 3.77969,-15.04258 11.42443,-15.1018 8.21919,-0.0637 13.46941,7.09308 13.53951,18.45616 0.0503,8.14784 -2.61557,13.05269 -8.09102,14.88662 -3.29028,1.10203 -5.36521,0.94044 -8.62167,-0.67147 z m 97.55449,3.0126 c 7.87555,-1.62039 14.40163,-9.66559 14.89299,-18.35973 0.61916,-10.95555 -5.86581,-18.49353 -17.00394,-19.76501 -7.17917,-0.81954 -24.22239,-0.19649 -24.22239,0.8855 0,0.48649 0.87927,1.07764 1.95394,1.31368 1.07466,0.23603 2.28039,0.82251 2.67939,1.30328 0.48824,0.58829 0.6668,5.86075 0.54607,16.12381 L 778.33333,337 l -2.5,1.22157 c -1.375,0.67187 -2.5,1.4884 -2.5,1.81452 0,1.04424 21.44974,1.21749 26.33334,0.21269 z m -12.42615,-3.52205 c -1.55266,-1.25612 -1.57654,-1.4648 -1.77327,-15.5 -0.23998,-17.12032 -0.34359,-16.82956 5.97545,-16.77011 5.1593,0.0485 8.82628,1.70703 11.8453,5.35737 6.70859,8.11144 4.58408,22.49653 -3.96673,26.85883 -3.52551,1.79858 -9.8891,1.82698 -12.08075,0.0539 z M 857,340.08077 c 3.44111,-1.57854 6.21505,-4.37819 7.75903,-7.83095 0.95544,-2.13663 1.32577,-5.1856 1.65997,-13.66667 0.23659,-6.00407 0.69799,-11.43838 1.02534,-12.07625 0.32735,-0.63787 1.4961,-1.62565 2.59722,-2.19506 1.10112,-0.56941 1.82452,-1.32251 1.60756,-1.67357 C 871.43216,302.28722 868.44005,302 865,302 c -3.44005,0 -6.43216,0.28722 -6.64912,0.63827 -0.21696,0.35106 0.48018,1.09058 1.54921,1.6434 2.34046,1.2103 2.58425,2.06998 3.13405,11.05166 0.88606,14.47482 -2.04853,20.93517 -9.91235,21.82154 -3.53157,0.39805 -8.04306,-1.47575 -9.96772,-4.14 -1.72795,-2.39195 -2.48867,-7.49062 -2.47758,-16.60586 0.0105,-8.63897 0.61406,-10.93741 3.16868,-12.0671 0.81849,-0.36194 1.48816,-1.03694 1.48816,-1.5 0,-1.00255 -15.01255,-1.23361 -15.62633,-0.24051 -0.20442,0.33077 0.64439,1.2009 1.88625,1.93361 l 2.25793,1.33222 0.25357,12.23305 c 0.23155,11.17124 0.3886,12.50949 1.80932,15.41785 1.63209,3.34106 4.3906,5.83564 7.7526,7.01084 3.31469,1.15865 10.34571,0.92231 13.33333,-0.4482 z M 912.68814,340.5 c 0.0118,-0.45833 0.0111,-8.18333 -10e-4,-17.16667 -0.013,-9.25181 0.25227,-16.76057 0.61186,-17.31874 0.34916,-0.54198 1.62483,-1.31875 2.83483,-1.72615 1.20999,-0.4074 2.1264,-1.01397 2.03645,-1.34792 -0.22077,-0.81965 -13.55529,-1.15502 -14.34941,-0.3609 -0.39378,0.39378 0.51867,1.13619 2.44214,1.98704 l 3.07081,1.35837 v 12.45245 c 0,9.89835 -0.17092,12.30598 -0.83333,11.73837 -0.45833,-0.39275 -5.93333,-6.86052 -12.16667,-14.37283 L 885,302.08427 l -6.22222,-0.0421 c -6.92476,-0.0469 -7.59308,0.59311 -3.07024,2.94013 4.34996,2.25732 4.60879,3.46718 3.77798,17.6598 -0.39787,6.79687 -0.93124,12.89404 -1.18525,13.54926 -0.25401,0.65523 -1.32549,1.63794 -2.38106,2.18379 -3.42088,1.76901 -2.18629,2.29156 5.41412,2.29156 7.80111,0 9.04314,-0.60104 4.8567,-2.35025 -1.36215,-0.56914 -2.70756,-1.39817 -2.98979,-1.84228 -0.28224,-0.44411 -0.51775,-6.16921 -0.52336,-12.72244 -0.009,-11.02954 0.0721,-11.84697 1.09755,-11 0.60927,0.50323 5.89541,6.46497 11.74697,13.2483 5.85157,6.78333 11.42807,13.00684 12.39224,13.83002 1.89659,1.61926 4.73976,2.01823 4.7745,0.66998 z m 53.81272,-16.17081 c 3.759,-9.1079 7.35299,-17.1327 7.98664,-17.83288 0.63365,-0.70017 2.13319,-1.68297 3.3323,-2.18399 C 981.89333,302.61029 980.35731,302 972,302 c -6.38968,0 -8,0.18674 -8,0.92773 0,0.51025 0.74621,1.11501 1.65823,1.34392 0.91203,0.2289 2.12694,1.13151 2.69979,2.0058 0.98599,1.50481 0.82063,2.18004 -3.09939,12.65608 -2.27753,6.08656 -4.31743,11.06135 -4.53313,11.0551 -0.46107,-0.0134 -8.76075,-22.61034 -8.73978,-23.7952 0.008,-0.44362 1.21428,-1.1661 2.68095,-1.60553 1.46666,-0.43942 2.66666,-1.20146 2.66666,-1.69343 0,-0.70401 -1.91634,-0.89447 -9,-0.89447 -7.27649,0 -9,0.17901 -9,0.93478 0,0.51413 0.88076,1.24182 1.95724,1.61708 2.47879,0.86411 2.84764,1.60375 10.08429,20.22164 6.70775,17.25716 6.4633,16.72489 7.51939,16.37286 0.42463,-0.14154 3.84761,-7.70927 7.60661,-16.81717 z m 109.78904,14.74915 c 3.102,-2.36606 4.448,-5.0799 4.4786,-9.03037 0.042,-5.43728 -1.5268,-7.47894 -10.1828,-13.25128 -5.2553,-3.5046 -5.919,-4.33096 -5.919,-7.36954 0,-3.99848 4.0733,-6.38695 8.0695,-4.73169 1.1456,0.47453 2.7005,2.04767 3.686,3.72931 1.0719,1.82919 2.1787,2.90856 2.9824,2.90856 1.1276,0 1.2263,-0.33312 0.8399,-2.83333 -0.7358,-4.75993 -1.3253,-5.70064 -4.0461,-6.45618 -7.1989,-1.9991 -14.9531,0.71972 -16.9873,5.95618 -1.0299,2.65129 -0.7612,7.09217 0.5667,9.36357 0.6722,1.1499 3.6972,3.74115 6.7221,5.75834 3.025,2.01719 6.1,4.43043 6.8334,5.36276 3.0352,3.85862 0.2676,10.182 -4.4564,10.182 -3.4891,0 -6.0471,-1.86705 -7.9851,-5.8281 -2.1988,-4.49427 -3.5617,-4.62427 -3.5494,-0.33857 0.014,4.84881 0.5445,5.96749 3.5593,7.50572 2.2901,1.16843 3.6448,1.36572 7.8875,1.14864 4.3148,-0.22076 5.4975,-0.54809 7.5007,-2.07602 z m -448.95657,0.88764 c 0,-0.38537 -1.05,-1.1394 -2.33333,-1.67561 -1.28333,-0.53621 -2.33333,-1.36818 -2.33333,-1.84882 0,-0.73779 6.21095,-9.57728 7.96956,-11.34236 0.50391,-0.50577 6.83296,8.07516 7.78402,10.55358 0.24621,0.6416 -0.45451,1.47242 -2.02172,2.3971 -1.31919,0.77834 -2.39853,1.68553 -2.39853,2.01598 0,0.33045 4.35,0.60082 9.66667,0.60082 9.64939,0 11.78798,-0.56266 7.83333,-2.06091 -1.00833,-0.38202 -2.53803,-1.34959 -3.39932,-2.15017 -2.05648,-1.91152 -11.43401,-15.43476 -11.43401,-16.48888 0,-2.16503 12.94136,-15.96671 14.97144,-15.96671 0.5657,0 1.02856,-0.45 1.02856,-1 0,-0.82828 -1.25926,-1 -7.33334,-1 -5.84668,0 -7.33333,0.1895 -7.33333,0.93478 0,0.51413 0.9,1.24853 2,1.63199 1.1,0.38346 2,1.12522 2,1.64835 0,0.85316 -7.07825,11.11821 -7.66655,11.11821 -0.77317,0 -7.73069,-10.87186 -7.44086,-11.62714 0.19286,-0.50259 1.27092,-1.11592 2.3957,-1.36296 1.12477,-0.24704 2.04504,-0.87533 2.04504,-1.3962 0,-0.77472 -1.75882,-0.94703 -9.66666,-0.94703 -9.99741,0 -11.72485,0.53326 -7.5,2.31524 1.19166,0.50263 3.09378,1.91232 4.22693,3.13265 2.69279,2.89997 10.27307,13.56184 10.27307,14.44936 0,0.81781 -5.97682,8.83524 -8.91929,11.96452 -1.13523,1.2073 -3.6428,2.96751 -5.57238,3.91157 -1.92959,0.94405 -3.50833,1.98126 -3.50833,2.30489 0,0.32364 3.75,0.58844 8.33333,0.58844 5.38083,0 8.33333,-0.24826 8.33333,-0.70069 z m 45.33334,0.0889 c 0,-0.33647 -1.1179,-1.16147 -2.48421,-1.83334 -1.52253,-0.74868 -2.65816,-1.86677 -2.93355,-2.88824 -0.79101,-2.93399 -0.63912,-11.67645 0.21776,-12.53333 0.44,-0.44 2.38102,-0.8 4.31337,-0.8 3.13072,0 3.67443,0.21783 4.99204,2 0.81327,1.1 1.72225,2 2.01996,2 0.29771,0 0.54129,-2.25 0.54129,-5 0,-2.75 -0.2477,-5 -0.55045,-5 -0.30276,0 -1.26693,0.76265 -2.14262,1.69478 -1.41662,1.50792 -2.03582,1.6733 -5.61621,1.5 L 667,319 l -0.19186,-5.39035 c -0.10552,-2.96469 0.11206,-6.18969 0.4835,-7.16666 0.63721,-1.67598 0.92354,-1.77632 5.06902,-1.77632 5.26033,0 6.77689,0.70192 8.03806,3.72032 1.51698,3.63066 2.35129,2.78484 2.13174,-2.16114 L 682.33333,301.78503 669,301.93589 c -7.33333,0.083 -13.59752,0.41053 -13.92042,0.7279 -0.33429,0.32857 0.52689,1.10157 2,1.79521 l 2.58709,1.21816 V 321.33858 337 l -2.5,1.22157 c -1.375,0.67187 -2.5,1.49687 -2.5,1.83334 0,0.34102 3.98294,0.61176 9,0.61176 5.01706,0 9,-0.27074 9,-0.61176 z M 938,340.00895 c 0,-0.36175 -1.02585,-1.08635 -2.27967,-1.61023 -1.25382,-0.52388 -2.60382,-1.55818 -3,-2.29845 -0.94953,-1.77421 -0.97559,-27.71098 -0.0296,-29.47853 0.37989,-0.70983 1.72989,-1.7248 3,-2.25549 C 940.00841,302.5622 938.41875,302 929,302 c -5.50796,0 -9,0.25663 -9,0.66142 0,0.36378 1.125,1.19094 2.5,1.83814 l 2.5,1.17672 0.1794,15.24488 c 0.12603,10.71003 -0.0476,15.51845 -0.58385,16.16452 -0.41978,0.50581 -1.6801,1.15723 -2.80071,1.44761 -1.12062,0.29038 -2.15789,0.88918 -2.30505,1.33067 -0.20017,0.6005 2.09757,0.80271 9.12132,0.80271 5.72967,0 9.38889,-0.25634 9.38889,-0.65772 z m 72.084,-1.17562 c 0.3947,-1.00833 0.8767,-2.95833 1.0712,-4.33333 0.2793,-1.97415 0.1343,-2.5 -0.6892,-2.5 -0.5735,0 -1.2291,0.58682 -1.4567,1.30405 -0.2276,0.71723 -1.3209,2.06723 -2.4294,3 -1.73,1.45571 -2.6626,1.69595 -6.58343,1.69595 -6.44748,0 -6.75631,-0.42179 -6.51902,-8.9035 l 0.18922,-6.76317 h 4 c 3.85633,0 4.03593,0.0773 5.00003,2.15224 1.7964,3.86631 2.6666,2.72881 2.6666,-3.48557 0,-4.41688 -0.2061,-5.66667 -0.9347,-5.66667 -0.5142,0 -1.2537,0.91459 -1.6433,2.03242 -0.6998,2.00747 -0.76,2.02998 -4.89859,1.83334 L 993.66667,319 l -0.19258,-6.23381 c -0.12428,-4.02332 0.082,-6.5646 0.58163,-7.16667 0.94127,-1.13415 8.70148,-1.28813 10.71118,-0.21253 0.7403,0.39618 1.7746,1.74618 2.2985,3 1.2969,3.104 2.2698,2.86553 2.2588,-0.55366 -0.02,-6.24531 0.9971,-5.83333 -14.40195,-5.83333 -11.29679,0 -13.58892,0.15974 -13.58892,0.94703 0,0.52087 0.87927,1.14015 1.95394,1.37619 1.07466,0.23603 2.28039,0.82251 2.67939,1.30328 0.48824,0.58829 0.6668,5.86075 0.54607,16.12381 L 986.33333,337 l -2.5,1.22157 c -1.375,0.67187 -2.5,1.49687 -2.5,1.83334 0,0.35183 5.95526,0.61176 14.0165,0.61176 h 14.01647 z m 92.5827,1.17562 c 0,-0.36175 -1.0259,-1.08635 -2.2797,-1.61023 -1.2538,-0.52388 -2.6038,-1.55818 -3,-2.29845 -0.9495,-1.77421 -0.9756,-27.71098 -0.03,-29.47853 0.3799,-0.70983 1.7299,-1.7248 3,-2.25549 4.3177,-1.80405 2.728,-2.36625 -6.6907,-2.36625 -5.508,0 -9,0.25663 -9,0.66142 0,0.36378 1.125,1.19094 2.5,1.83814 l 2.5,1.17672 0.1794,15.24488 c 0.126,10.71003 -0.048,15.51845 -0.5839,16.16452 -0.4198,0.50581 -1.6801,1.15723 -2.8007,1.44761 -1.1206,0.29038 -2.1579,0.88918 -2.305,1.33067 -0.2002,0.6005 2.0975,0.80271 9.1213,0.80271 5.7297,0 9.3889,-0.25634 9.3889,-0.65772 z m 30.6666,0 c 0,-0.36175 -1.0258,-1.08635 -2.2796,-1.61023 -1.2539,-0.52388 -2.6203,-1.58891 -3.0366,-2.36674 -0.5167,-0.96554 -0.6924,-5.96191 -0.5536,-15.74839 0.2281,-16.09422 0.075,-15.63641 5.2032,-15.54026 4.8161,0.0903 6.2231,0.73078 7.5549,3.43913 0.6718,1.36631 1.4618,2.48421 1.7556,2.48421 0.6647,0 1.335,-2.40511 1.347,-4.83334 0.023,-4.63101 4.3925,-0.84506 10.7649,9.32733 L 1159,323 l 0.2302,5.75844 c 0.2661,6.65699 -0.3394,8.27072 -3.6172,9.64028 -4.1974,1.75378 -2.5983,2.26795 7.0537,2.26795 9.7694,0 11.2593,-0.5107 6.8567,-2.35025 -1.3622,-0.56914 -2.7076,-1.39817 -2.9898,-1.84228 -0.2823,-0.44411 -0.5178,-3.83009 -0.5234,-7.5244 l -0.01,-6.71692 4.269,-6.84735 c 5.2297,-8.38828 6.5041,-9.88611 9.4641,-11.12285 1.2763,-0.5333 2.1409,-1.26056 1.9211,-1.61613 -0.2198,-0.35557 -3.5319,-0.64649 -7.3602,-0.64649 -5.527,0 -6.9607,0.19254 -6.9607,0.93478 0,0.51413 0.9,1.24853 2,1.63199 1.1,0.38346 2,1.17278 2,1.75405 0,2.32306 -6.3327,13.29759 -7.3208,12.68691 -0.3335,-0.20613 -2.1681,-3.2631 -4.0768,-6.79326 -3.2867,-6.0788 -3.4053,-6.46601 -2.2423,-7.31648 0.6755,-0.49389 1.6208,-0.89799 2.1007,-0.89799 0.4799,0 0.8726,-0.45 0.8726,-1 0,-0.8351 -1.3625,-1 -8.262,-1 -6.9764,0 -8.3261,-0.16685 -8.6735,-1.07222 -0.3704,-0.96536 -0.5935,-0.94875 -2.238,0.16666 -1.6343,1.10854 -3.2764,1.23889 -15.6062,1.23889 -13.7418,0 -13.7844,-0.005 -15.5351,-1.64919 -1.477,-1.38759 -1.854,-1.49334 -2.3768,-0.66667 -0.3417,0.54039 -0.6259,1.47089 -0.6316,2.06778 -0.01,0.59689 -0.4602,2.16225 -1.0102,3.47859 -1.866,4.46611 -0.8938,5.8853 1.8378,2.68271 2.6651,-3.12462 8.1327,-4.53458 11.2061,-2.88976 1.2171,0.65138 1.2895,1.54495 1.2895,15.91837 0,16.35319 0.078,15.98349 -3.625,17.17699 -1.0771,0.34715 -2.0771,0.98743 -2.2223,1.42285 -0.1953,0.58613 2.1738,0.79167 9.125,0.79167 5.7297,0 9.3889,-0.25634 9.3889,-0.65772 z M 330.10034,286.72546 c 3.02746,-0.93486 3.81968,-2.63811 1.93637,-4.16312 -1.84521,-1.49416 -8.71328,-2.07829 -21.08368,-1.79318 -8.19838,0.18896 -10.34263,0.44531 -11.81768,1.41288 -3.3244,2.18064 -1.8535,3.73037 4.86465,5.12536 3.91018,0.81193 22.96206,0.38714 26.10034,-0.58194 z M 305,277.33732 c 3.3,-0.36284 8.7,-0.66044 12,-0.66132 5.30098,-10e-4 7.80017,0.27107 16,1.74453 l 2,0.35939 2.83333,-10.5697 C 340.81204,257.09822 341.01586,256 340.09942,256 c -0.72693,0 -8.80426,6.10418 -10.02476,7.57588 -0.79872,0.96311 -0.75944,1.29912 0.28701,2.45543 1.1849,1.3093 1.14609,1.40716 -1.71346,4.32083 -1.6092,1.63966 -3.08836,2.97528 -3.28702,2.96805 -0.72983,-0.0266 -4.78608,-7.62301 -4.17855,-7.82551 0.34555,-0.11519 1.15607,-0.59536 1.80114,-1.06705 1.11929,-0.81845 1.11921,-0.96196 -0.002,-3.14262 -1.60549,-3.12305 -5.9535,-9.48815 -7.17238,-10.49974 -0.83132,-0.68993 -1.32502,-0.40808 -2.96653,1.69353 -1.08308,1.38666 -3.08929,4.54195 -4.45824,7.01176 l -2.489,4.49055 1.71876,0.78312 c 0.94532,0.43072 1.71199,0.95997 1.70371,1.17611 -0.008,0.21615 -0.99587,1.96795 -2.19463,3.89289 l -2.17957,3.4999 -2.92572,-2.98109 c -2.77572,-2.82825 -2.86828,-3.04456 -1.80537,-4.21906 0.61619,-0.68088 1.12034,-1.41196 1.12034,-1.62462 0,-0.50065 -7.92426,-6.73079 -9.91866,-7.79817 -0.84088,-0.45002 -1.68968,-0.6574 -1.88623,-0.46086 -0.60718,0.60719 4.77371,19.9854 5.99161,21.57756 0.34788,0.45479 1.27319,0.67912 2.05623,0.49852 0.78305,-0.18061 4.12372,-0.62525 7.42372,-0.98809 z"
         id="path2" />
    </g>
  </g>
</svg>
